<svg xmlns="http://www.w3.org/2000/svg" baseProfile="tiny" version="1.2" viewBox="336 305 611 133" width="100%" height="100%">
  <path fill="none" stroke="currentColor" stroke-linejoin="bevel" stroke-width="2.73" d="M336.599 386.199h610.092" class="StaffLines"/>
  <path fill="none" stroke="currentColor" stroke-linejoin="bevel" stroke-width="4.46" d="M921.643 335.235v101.928" class="BarLine"/>
  <path fill="none" stroke="currentColor" stroke-linejoin="bevel" stroke-width="13.64" d="M939.871 335.235v101.928" class="BarLine"/>
  <path fill="none" stroke="currentColor" stroke-linejoin="bevel" stroke-width="2.48" d="M521.839 382.231v-58.032" class="Stem"/>
  <path fill="none" stroke="currentColor" stroke-linejoin="bevel" stroke-width="2.48" d="M633.688 382.231v-76.434" class="Stem"/>
  <path fill="none" stroke="currentColor" stroke-linejoin="bevel" stroke-width="2.48" d="M704.507 382.231v-58.032" class="Stem"/>
  <path fill="none" stroke="currentColor" stroke-linejoin="bevel" stroke-width="2.48" d="M763.329 382.231v-58.032" class="Stem"/>
  <path fill="none" stroke="currentColor" stroke-linejoin="bevel" stroke-width="2.48" d="M822.15 382.231v-58.032" class="Stem"/>
  <path fill="none" stroke="currentColor" stroke-linejoin="bevel" stroke-width="2.48" d="M880.971 382.231v-58.032" class="Stem"/>
  <path d="M632.448 328.116c0 .298.1.893.794 1.092 4.265 1.388 12.796 6.745 19.244 17.756 1.786 3.076 4.663 7.341 4.663 15.575 0 7.142-1.786 14.483-4.464 21.625q-.298.894-.298 1.488c0 .695.397.992 1.091.992.596 0 1.092-.396 1.488-1.09 4.464-7.937 6.15-17.162 6.15-26.19-.495-12.796-7.836-22.22-7.836-22.22.298 0-9.126-12.202-11.805-16.368-3.67-5.655-5.357-11.31-5.555-11.706-.1-.298-.992-3.869-.992-3.869-.1-.397-.595-.793-1.19-.793-.695 0-1.29.595-1.29 1.29z" class="Hook"/>
  <path d="M490.847 390.365c0 4.266 3.075 9.028 11.11 9.028 10.317 0 21.13-8.432 21.13-17.162 0-5.853-4.96-9.126-11.11-9.126-9.623 0-21.13 8.134-21.13 17.26" class="Note"/>
  <path d="M602.696 390.365c0 4.266 3.075 9.028 11.11 9.028 10.317 0 21.13-8.432 21.13-17.162 0-5.853-4.96-9.126-11.11-9.126-9.623 0-21.13 8.134-21.13 17.26" class="Note"/>
  <path d="M673.515 390.365c0 4.266 3.075 9.028 11.11 9.028 10.317 0 21.13-8.432 21.13-17.162 0-5.853-4.96-9.126-11.11-9.126-9.623 0-21.13 8.134-21.13 17.26" class="Note"/>
  <path d="M732.336 390.365c0 4.266 3.075 9.028 11.11 9.028 10.317 0 21.13-8.432 21.13-17.162 0-5.853-4.96-9.126-11.11-9.126-9.623 0-21.13 8.134-21.13 17.26" class="Note"/>
  <path d="M791.157 390.365c0 4.266 3.075 9.028 11.11 9.028 10.317 0 21.13-8.432 21.13-17.162 0-5.853-4.96-9.126-11.11-9.126-9.623 0-21.13 8.134-21.13 17.26" class="Note"/>
  <path d="M849.978 390.365c0 4.266 3.075 9.028 11.11 9.028 10.317 0 21.13-8.432 21.13-17.162 0-5.853-4.96-9.126-11.11-9.126-9.623 0-21.13 8.134-21.13 17.26" class="Note"/>
  <path d="M356.489 361.2c-.695 0-1.29.596-1.29 1.29v47.418c0 .694.595 1.29 1.29 1.29H367.4c.694 0 1.29-.596 1.29-1.29V362.49c0-.694-.596-1.29-1.29-1.29zm21.427 0c-.695 0-1.29.596-1.29 1.29v47.418c0 .694.595 1.29 1.29 1.29h10.912c.694 0 1.29-.596 1.29-1.29V362.49c0-.694-.596-1.29-1.29-1.29z" class="Clef"/>
  <path d="M434.159 373.997v7.341h-8.234c-.694 0-1.389.595-1.389 1.389v1.885c0 .793.695 1.389 1.389 1.389h30.058c.793 0 1.388-.596 1.388-1.39v-1.884c0-.794-.595-1.389-1.388-1.389h-8.83v-7.34h8.83c.793 0 1.388-.695 1.388-1.489v-1.884c0-.695-.595-1.39-1.388-1.39h-8.83v-15.772c0-.595-.297-1.091-.793-1.29l-1.19-.595c-.199-.099-.496-.198-.695-.198-.297.099-.694.198-.892.397l-9.028 8.233c-.297.298-.396.695-.396 1.091v8.135H422.75s11.01-11.904 22.716-27.578c.397-.496.496-.992.496-1.389 0-.496-.198-.892-.297-.992l-2.183-2.182a1.52 1.52 0 0 0-.992-.397h-14.68c-.794 0-1.29.595-1.389 1.19 0 0-.496 7.341-3.075 15.377-2.58 8.035-5.555 12.995-8.135 16.665 0 0-.297.496-.297 1.091 0 .199 0 .397.099.596.397.694.992 1.785.992 1.785s.198.595 1.091.595z" class="TimeSig"/>
  <path d="M434.159 423.597v7.341h-8.234c-.694 0-1.389.595-1.389 1.389v1.885c0 .793.695 1.389 1.389 1.389h30.058c.793 0 1.388-.596 1.388-1.39v-1.884c0-.794-.595-1.389-1.388-1.389h-8.83v-7.34h8.83c.793 0 1.388-.695 1.388-1.489v-1.884c0-.695-.595-1.39-1.388-1.39h-8.83v-15.772c0-.595-.297-1.091-.793-1.29l-1.19-.595c-.199-.099-.496-.198-.695-.198-.297.099-.694.198-.892.397l-9.028 8.233c-.297.298-.396.695-.396 1.091v8.135H422.75s11.01-11.904 22.716-27.578c.397-.496.496-.992.496-1.389 0-.496-.198-.892-.297-.992l-2.183-2.182a1.52 1.52 0 0 0-.992-.397h-14.68c-.794 0-1.29.595-1.389 1.19 0 0-.496 7.341-3.075 15.377-2.58 8.035-5.555 12.995-8.135 16.665 0 0-.297.496-.297 1.091 0 .199 0 .397.099.596.397.694.992 1.785.992 1.785s.198.595 1.091.595z" class="TimeSig"/>
  <path fill-rule="evenodd" d="M703.267 317.998h178.944v12.401H703.267z" class="Beam"/>
  <path d="M535.479 373.799c0 2.778 2.182 4.96 4.96 4.96s4.96-2.182 4.96-4.96-2.182-4.96-4.96-4.96-4.96 2.182-4.96 4.96" class="NoteDot"/>
</svg>
