<svg xmlns="http://www.w3.org/2000/svg" baseProfile="tiny" version="1.2" viewBox="212 297 2140 656" width="100%" height="100%">
  <path fill="none" stroke="currentColor" stroke-linejoin="bevel" stroke-width="2.73" d="M336.599 386.199H2338.58" class="StaffLines"/>
  <path fill="none" stroke="currentColor" stroke-linejoin="bevel" stroke-width="2.73" d="M336.599 410.999H2338.58" class="StaffLines"/>
  <path fill="none" stroke="currentColor" stroke-linejoin="bevel" stroke-width="2.73" d="M336.599 435.799H2338.58" class="StaffLines"/>
  <path fill="none" stroke="currentColor" stroke-linejoin="bevel" stroke-width="2.73" d="M336.599 460.599H2338.58" class="StaffLines"/>
  <path fill="none" stroke="currentColor" stroke-linejoin="bevel" stroke-width="2.73" d="M336.599 485.399H2338.58" class="StaffLines"/>
  <path fill="none" stroke="currentColor" stroke-linejoin="bevel" stroke-width="2.73" d="M212.598 790.192H2338.58" class="StaffLines"/>
  <path fill="none" stroke="currentColor" stroke-linejoin="bevel" stroke-width="2.73" d="M212.598 814.992H2338.58" class="StaffLines"/>
  <path fill="none" stroke="currentColor" stroke-linejoin="bevel" stroke-width="2.73" d="M212.598 839.792H2338.58" class="StaffLines"/>
  <path fill="none" stroke="currentColor" stroke-linejoin="bevel" stroke-width="2.73" d="M212.598 864.592H2338.58" class="StaffLines"/>
  <path fill="none" stroke="currentColor" stroke-linejoin="bevel" stroke-width="2.73" d="M212.598 889.392H2338.58" class="StaffLines"/>
  <path d="M232.288 712.432c-2.12.24-4.72.4-6.96.4q-1.68 0-3.84-.12c-1.32-.08-2.64-.16-4-.24l-1-.04-3.88 8.44 1.48.48.96-1.6c1.88-3.12 2.76-3.56 6.84-3.52h6.76l-4.36 6.24c-5.12 7.2-5.12 7.2-7.08 10.4-1.76 2.84-2.48 4.6-2.48 6.04 0 1.4.88 2.28 2.28 2.28 1.48 0 2.24-.72 2.76-2.6 2-7.52 3.2-10.12 8.76-19.12l3.76-5.84z" class="MeasureNumber"/>
  <path fill="none" stroke="currentColor" stroke-linejoin="bevel" stroke-width="4.46" d="M1587.57 788.828v101.928" class="BarLine"/>
  <path fill="none" stroke="currentColor" stroke-linejoin="bevel" stroke-width="4.46" d="M954.75 788.828v101.928" class="BarLine"/>
  <path fill="none" stroke="currentColor" stroke-linejoin="bevel" stroke-width="13.64" d="M450.888 788.828v101.928" class="BarLine"/>
  <path fill="none" stroke="currentColor" stroke-linejoin="bevel" stroke-width="4.46" d="M469.116 788.828v101.928" class="BarLine"/>
  <path d="M490.84 827.392c0-2.877-2.28-5.258-5.158-5.258-2.876 0-5.158 2.381-5.158 5.258s2.282 5.258 5.158 5.258 5.159-2.381 5.159-5.258" class="BarLine"/>
  <path d="M490.84 852.192c0-2.877-2.28-5.258-5.158-5.258-2.876 0-5.158 2.381-5.158 5.258s2.282 5.258 5.158 5.258 5.159-2.381 5.159-5.258" class="BarLine"/>
  <path fill="none" stroke="currentColor" stroke-linejoin="bevel" stroke-width="4.46" d="M2265.87 384.835v101.928" class="BarLine"/>
  <path d="M1968.567 827.392c0-2.877-2.282-5.258-5.159-5.258s-5.158 2.381-5.158 5.258 2.282 5.258 5.158 5.258 5.159-2.381 5.159-5.258" class="BarLine"/>
  <path d="M1968.567 852.192c0-2.877-2.282-5.258-5.159-5.258s-5.158 2.381-5.158 5.258 2.282 5.258 5.158 5.258 5.159-2.381 5.159-5.258" class="BarLine"/>
  <path fill="none" stroke="currentColor" stroke-linejoin="bevel" stroke-width="4.46" d="M1979.98 788.828v101.928" class="BarLine"/>
  <path fill="none" stroke="currentColor" stroke-linejoin="bevel" stroke-width="13.64" d="M1998.2 788.828v101.928" class="BarLine"/>
  <path fill="none" stroke="currentColor" stroke-linejoin="bevel" stroke-width="4.46" d="M2051.35 384.835v101.928" class="BarLine"/>
  <path fill="none" stroke="currentColor" stroke-linejoin="bevel" stroke-width="4.46" d="M1777.58 384.835v101.928" class="BarLine"/>
  <path fill="none" stroke="currentColor" stroke-linejoin="bevel" stroke-width="4.46" d="M2313.53 788.828v101.928" class="BarLine"/>
  <path fill="none" stroke="currentColor" stroke-linejoin="bevel" stroke-width="13.64" d="M2331.76 788.828v101.928" class="BarLine"/>
  <path d="M1485.647 423.399c0-2.877-2.282-5.258-5.159-5.258s-5.158 2.381-5.158 5.258 2.282 5.258 5.158 5.258 5.159-2.381 5.159-5.258" class="BarLine"/>
  <path d="M1485.647 448.199c0-2.877-2.282-5.258-5.159-5.258s-5.158 2.381-5.158 5.258 2.282 5.258 5.158 5.258 5.159-2.381 5.159-5.258" class="BarLine"/>
  <path fill="none" stroke="currentColor" stroke-linejoin="bevel" stroke-width="4.46" d="M1497.05 384.835v101.928" class="BarLine"/>
  <path fill="none" stroke="currentColor" stroke-linejoin="bevel" stroke-width="13.64" d="M1515.28 384.835v101.928" class="BarLine"/>
  <path fill="none" stroke="currentColor" stroke-linejoin="bevel" stroke-width="4.46" d="M1085.29 384.835v101.928" class="BarLine"/>
  <path fill="none" stroke="currentColor" stroke-linejoin="bevel" stroke-width="4.46" d="M752.276 384.835v101.928" class="BarLine"/>
  <path fill="none" stroke="currentColor" stroke-linejoin="bevel" stroke-width="3.97" d="M956.38 510.199h48.6" class="LedgerLine"/>
  <path fill="none" stroke="currentColor" stroke-linejoin="bevel" stroke-width="3.97" d="M672.428 510.199h48.6" class="LedgerLine"/>
  <path fill="none" stroke="currentColor" stroke-linejoin="bevel" stroke-width="3.97" d="M572.284 510.199h48.6" class="LedgerLine"/>
  <path fill="none" stroke="currentColor" stroke-linejoin="bevel" stroke-width="2.48" d="M611.46 506.231v-70.432" class="Stem"/>
  <path fill="none" stroke="currentColor" stroke-linejoin="bevel" stroke-width="2.48" d="M711.604 506.231v-70.432" class="Stem"/>
  <path fill="none" stroke="currentColor" stroke-linejoin="bevel" stroke-width="2.48" d="M1682.6 843.958v70.234" class="Stem"/>
  <path fill="none" stroke="currentColor" stroke-linejoin="bevel" stroke-width="2.48" d="M877.059 493.831v-82.832" class="Stem"/>
  <path fill="none" stroke="currentColor" stroke-linejoin="bevel" stroke-width="2.48" d="M995.556 506.231v-82.832" class="Stem"/>
  <path fill="none" stroke="currentColor" stroke-linejoin="bevel" stroke-width="2.48" d="M1294.25 897.824v-82.832" class="Stem"/>
  <path fill="none" stroke="currentColor" stroke-linejoin="bevel" stroke-width="2.48" d="M1079.53 885.424v-82.832" class="Stem"/>
  <path fill="none" stroke="currentColor" stroke-linejoin="bevel" stroke-width="2.48" d="M1210.08 469.031v-82.832" class="Stem"/>
  <path fill="none" stroke="currentColor" stroke-linejoin="bevel" stroke-width="2.48" d="M1328.57 481.431v-82.832" class="Stem"/>
  <path fill="none" stroke="currentColor" stroke-linejoin="bevel" stroke-width="2.48" d="M768.791 873.024v-82.832" class="Stem"/>
  <path fill="none" stroke="currentColor" stroke-linejoin="bevel" stroke-width="2.48" d="M554.072 848.224v-76.632" class="Stem"/>
  <path fill="none" stroke="currentColor" stroke-linejoin="bevel" stroke-width="2.48" d="M1644.65 456.631v-82.832" class="Stem"/>
  <path fill="none" stroke="currentColor" stroke-linejoin="bevel" stroke-width="2.48" d="M1864.06 843.958v70.234" class="Stem"/>
  <path fill="none" stroke="currentColor" stroke-linejoin="bevel" stroke-width="2.48" d="M2127.58 860.624v-82.832" class="Stem"/>
  <path fill="none" stroke="currentColor" stroke-linejoin="bevel" stroke-width="2.48" d="M2146.38 427.565v76.434" class="Stem"/>
  <path fill="none" stroke="currentColor" stroke-linejoin="bevel" stroke-width="2.48" d="M1902.37 469.031v-82.832" class="Stem"/>
  <path d="M1892.5 459.905c-9.623 0-21.13 8.035-21.13 17.26 0 4.266 3.075 9.028 11.11 9.028 10.317 0 21.13-8.432 21.13-17.162 0-5.853-4.96-9.126-11.11-9.126m-13.69 21.625c-3.274 0-3.968-2.678-3.968-3.571 0-4.86 16.666-13.392 21.328-13.392 2.38 0 3.968 1.389 3.968 3.571 0 4.96-16.765 13.392-21.328 13.392" class="Note"/>
  <path d="M1681.36 843.958c0 4.266 3.075 9.028 11.11 9.028 10.317 0 21.13-8.432 21.13-17.162 0-5.853-4.96-9.126-11.11-9.126-9.623 0-21.13 8.134-21.13 17.26" class="Note"/>
  <path d="M680.612 514.365c0 4.266 3.075 9.028 11.11 9.028 10.317 0 21.13-8.432 21.13-17.162 0-5.853-4.96-9.126-11.11-9.126-9.623 0-21.13 8.134-21.13 17.26" class="Note"/>
  <path d="M1862.82 843.958c0 4.266 3.075 9.028 11.11 9.028 10.317 0 21.13-8.432 21.13-17.162 0-5.853-4.96-9.126-11.11-9.126-9.623 0-21.13 8.134-21.13 17.26" class="Note"/>
  <path d="M846.067 501.965c0 4.266 3.075 9.028 11.11 9.028 10.317 0 21.13-8.432 21.13-17.162 0-5.853-4.96-9.126-11.11-9.126-9.623 0-21.13 8.134-21.13 17.26" class="Note"/>
  <path d="M964.564 514.365c0 4.266 3.075 9.028 11.11 9.028 10.317 0 21.13-8.432 21.13-17.162 0-5.853-4.96-9.126-11.11-9.126-9.623 0-21.13 8.134-21.13 17.26" class="Note"/>
  <path d="M2145.14 427.565c0 4.266 3.075 9.028 11.11 9.028 10.317 0 21.13-8.432 21.13-17.162 0-5.853-4.96-9.126-11.11-9.126-9.623 0-21.13 8.134-21.13 17.26" class="Note"/>
  <path d="M1284.39 888.698c-9.623 0-21.13 8.035-21.13 17.26 0 4.266 3.075 9.028 11.11 9.028 10.317 0 21.13-8.432 21.13-17.162 0-5.853-4.96-9.126-11.11-9.126m-13.69 21.625c-3.274 0-3.968-2.678-3.968-3.571 0-4.86 16.666-13.392 21.328-13.392 2.38 0 3.968 1.389 3.968 3.571 0 4.96-16.765 13.392-21.328 13.392" class="Note"/>
  <path d="M2096.58 868.758c0 4.266 3.075 9.028 11.11 9.028 10.317 0 21.13-8.432 21.13-17.162 0-5.853-4.96-9.126-11.11-9.126-9.623 0-21.13 8.134-21.13 17.26" class="Note"/>
  <path d="M580.468 514.365c0 4.266 3.075 9.028 11.11 9.028 10.317 0 21.13-8.432 21.13-17.162 0-5.853-4.96-9.126-11.11-9.126-9.623 0-21.13 8.134-21.13 17.26" class="Note"/>
  <path d="M1048.54 893.558c0 4.266 3.075 9.028 11.11 9.028 10.317 0 21.13-8.432 21.13-17.162 0-5.853-4.96-9.126-11.11-9.126-9.623 0-21.13 8.134-21.13 17.26" class="Note"/>
  <path d="M1613.66 464.765c0 4.266 3.075 9.028 11.11 9.028 10.317 0 21.13-8.432 21.13-17.162 0-5.853-4.96-9.126-11.11-9.126-9.623 0-21.13 8.134-21.13 17.26" class="Note"/>
  <path d="M1179.08 477.165c0 4.266 3.075 9.028 11.11 9.028 10.317 0 21.13-8.432 21.13-17.162 0-5.853-4.96-9.126-11.11-9.126-9.623 0-21.13 8.134-21.13 17.26" class="Note"/>
  <path d="M1318.71 472.305c-9.623 0-21.13 8.035-21.13 17.26 0 4.266 3.075 9.028 11.11 9.028 10.317 0 21.13-8.432 21.13-17.162 0-5.853-4.96-9.126-11.11-9.126m-13.69 21.625c-3.274 0-3.968-2.678-3.968-3.571 0-4.86 16.666-13.392 21.328-13.392 2.38 0 3.968 1.389 3.968 3.571 0 4.96-16.765 13.392-21.328 13.392" class="Note"/>
  <path d="M523.079 856.358c0 4.266 3.075 9.028 11.11 9.028 10.317 0 21.13-8.432 21.13-17.162 0-5.853-4.96-9.126-11.11-9.126-9.623 0-21.13 8.134-21.13 17.26" class="Note"/>
  <path d="M737.798 881.158c0 4.266 3.075 9.028 11.11 9.028 10.317 0 21.13-8.432 21.13-17.162 0-5.853-4.96-9.126-11.11-9.126-9.623 0-21.13 8.134-21.13 17.26" class="Note"/>
  <path d="M243.4 915.482c0 6.547 4.96 15.177 18.352 15.177 4.662 0 8.73-1.19 12.3-3.373 5.357-3.77 6.746-10.316 6.746-16.566 0-3.869-.595-8.333-1.587-13.987-.298-1.984-.893-4.96-1.488-8.829 9.721-3.174 16.963-13.293 16.963-23.51 0-14.98-10.614-25.098-25.098-25.098-.992-5.952-1.984-11.805-2.777-17.36 10.416-11.011 17.657-23.411 17.657-39.184 0-9.027-2.777-16.368-4.364-19.94-2.381-5.059-5.258-8.53-7.044-8.53-.694 0-3.77 1.19-7.043 5.059-6.349 7.539-8.134 20.237-8.134 28.57 0 5.356.496 10.217 2.182 21.327-.099.1-5.257 5.357-7.34 7.044-9.028 8.332-21.527 20.435-21.527 40.275 0 18.55 16.17 33.133 34.62 33.133 2.878 0 5.556-.298 7.838-.695 1.884 9.523 3.075 16.467 3.075 21.725 0 10.317-5.357 15.773-15.376 15.773-2.381 0-4.464-.496-4.663-.496-.099-.1-.297-.199-.297-.298 0-.198.198-.297.496-.297 4.662-.794 9.325-4.762 9.325-11.11 0-5.358-4.068-11.012-11.508-11.012-6.944 0-11.308 5.654-11.308 12.202m20.732-132.432c.893-3.968 5.456-14.384 10.615-14.384 1.488 0 3.869 4.761 3.869 11.705 0 10.317-7.639 18.055-14.484 24.8-.595-3.968-1.09-7.837-1.09-12.003 0-3.67.297-7.043 1.09-10.118m8.73 101.977c-1.984.397-3.869.595-5.754.595-14.185 0-26.288-9.92-26.288-24.899 0-12.102 8.532-22.915 17.261-30.454 1.687-1.488 3.274-2.877 4.762-4.365.893 5.357 1.587 10.02 2.281 14.086-9.027 2.679-15.177 12.202-15.177 21.527 0 6.944 5.456 16.467 13.392 16.467.793 0 1.686-.397 1.686-1.29 0-.892-.992-1.388-2.182-2.182-3.869-2.38-6.051-4.96-6.051-9.82 0-6.052 4.563-10.913 10.316-12.302zm14.086-18.352c0 7.043-2.876 14.285-9.92 17.162-2.083-11.904-4.761-27.677-5.456-32.042 8.928 0 15.376 6.051 15.376 14.88" class="Clef"/>
  <path d="M367.4 511.489c0 6.547 4.96 15.177 18.353 15.177 4.662 0 8.73-1.19 12.3-3.373 5.357-3.77 6.746-10.316 6.746-16.566 0-3.869-.595-8.333-1.587-13.987-.298-1.984-.893-4.96-1.488-8.829 9.721-3.174 16.963-13.293 16.963-23.51 0-14.98-10.614-25.098-25.098-25.098-.992-5.952-1.984-11.805-2.777-17.36 10.416-11.011 17.657-23.411 17.657-39.184 0-9.027-2.777-16.368-4.364-19.94-2.381-5.059-5.258-8.53-7.044-8.53-.694 0-3.77 1.19-7.043 5.059-6.349 7.539-8.134 20.237-8.134 28.57 0 5.356.496 10.217 2.182 21.327-.099.1-5.257 5.357-7.34 7.044-9.028 8.332-21.527 20.435-21.527 40.275 0 18.55 16.17 33.133 34.62 33.133 2.878 0 5.556-.298 7.838-.695 1.884 9.523 3.075 16.467 3.075 21.725 0 10.317-5.357 15.773-15.376 15.773-2.381 0-4.464-.496-4.663-.496-.099-.1-.297-.199-.297-.298 0-.198.198-.297.496-.297 4.662-.794 9.325-4.762 9.325-11.11 0-5.358-4.068-11.012-11.508-11.012-6.944 0-11.308 5.654-11.308 12.202m20.732-132.432c.893-3.968 5.456-14.384 10.615-14.384 1.488 0 3.869 4.761 3.869 11.705 0 10.317-7.639 18.055-14.484 24.8-.595-3.968-1.09-7.837-1.09-12.003 0-3.67.297-7.043 1.09-10.118m8.73 101.977c-1.984.397-3.869.595-5.754.595-14.185 0-26.288-9.92-26.288-24.899 0-12.102 8.532-22.915 17.261-30.454 1.687-1.488 3.274-2.877 4.762-4.365.893 5.357 1.587 10.02 2.281 14.086-9.027 2.679-15.177 12.202-15.177 21.527 0 6.944 5.456 16.467 13.392 16.467.793 0 1.686-.397 1.686-1.29 0-.892-.992-1.388-2.182-2.182-3.869-2.38-6.051-4.96-6.051-9.82 0-6.052 4.563-10.913 10.316-12.302zm14.086-18.352c0 7.043-2.876 14.285-9.92 17.162-2.083-11.904-4.761-27.677-5.456-32.042 8.928 0 15.376 6.051 15.376 14.88" class="Clef"/>
  <path d="M455.383 420.423c-4.96 0-7.837 3.075-8.333 3.67l.397-31.843c0-.793-.595-1.389-1.389-1.389h-1.19c-.794 0-1.389.596-1.389 1.39l.496 59.618c0 .794.595 1.39 1.389 1.39.198 0 .595-.1.793-.2 8.532-4.265 17.46-12.4 17.46-22.617 0-5.158-2.381-10.019-8.234-10.019m-8.63 27.974.297-19.344c.199-.892 1.687-3.77 5.655-3.77 3.57 0 3.868 3.374 3.868 5.457 0 8.829-3.273 12.499-9.82 17.657" class="KeySig"/>
  <path d="M331.383 824.416c-4.96 0-7.837 3.075-8.333 3.67l.397-31.843c0-.793-.595-1.389-1.389-1.389h-1.19c-.794 0-1.389.596-1.389 1.39l.496 59.618c0 .794.595 1.39 1.389 1.39.198 0 .595-.1.793-.2 8.532-4.265 17.46-12.4 17.46-22.617 0-5.158-2.381-10.019-8.234-10.019m-8.63 27.974.297-19.344c.199-.892 1.687-3.77 5.655-3.77 3.57 0 3.868 3.374 3.868 5.457 0 8.829-3.273 12.499-9.82 17.657" class="KeySig"/>
  <path d="M1831.246 415.364c-.793 2.182-2.777 9.325-7.638 9.325-6.448 0-7.837-3.968-13.194-3.968-.793 0-1.587.099-2.579.297 0 0 2.48-3.77 12.995-7.043 10.516-3.274 13.194-8.432 13.194-14.384 0-4.166-1.885-12.4-16.864-12.4s-17.757 9.027-17.757 13.59c0 4.068 3.373 7.341 7.44 7.341a7.324 7.324 0 0 0 7.341-7.34c0-2.778-1.984-5.853-4.563-6.845-.298-.1-.695-.596-.695-1.092 0-.595.496-1.29 2.282-1.785.496-.199 1.885-.496 3.373-.496 5.654 0 6.745 3.472 6.745 8.531 0 11.606-13.788 14.086-19.542 22.717 0 0-2.976 4.166-2.976 8.829 0 4.662 2.38 4.96 3.571 4.96 1.587 0 3.274-1.29 3.274-3.076 0-.396-.1-.793-.298-1.29-.595-1.388-.793-2.48-.793-3.273 0-.297 0-.595.099-.893.099-.595.893-1.587 3.273-1.587 2.877 0 3.968 3.373 5.754 5.952 1.786 2.58 4.563 4.167 7.738 4.167 3.174 0 7.44-2.282 9.225-5.952 1.786-3.67 4.067-11.11 4.067-13.79 0-1.289-.793-1.884-1.686-1.884-.694 0-1.389.397-1.786 1.389" class="TimeSig"/>
  <path d="M1814.684 473.197v7.341h-8.234c-.694 0-1.389.595-1.389 1.389v1.885c0 .793.695 1.389 1.389 1.389h30.058c.793 0 1.388-.596 1.388-1.39v-1.884c0-.794-.595-1.389-1.388-1.389h-8.83v-7.34h8.83c.793 0 1.388-.695 1.388-1.489v-1.884c0-.695-.595-1.39-1.388-1.39h-8.83v-15.772c0-.595-.297-1.091-.793-1.29l-1.19-.595c-.199-.099-.496-.198-.695-.198-.297.099-.694.198-.892.397l-9.028 8.233c-.297.298-.396.695-.396 1.091v8.135h-11.408s11.01-11.904 22.716-27.578c.397-.496.496-.992.496-1.389 0-.496-.198-.892-.297-.992l-2.183-2.182a1.52 1.52 0 0 0-.992-.397h-14.681c-.794 0-1.29.595-1.389 1.19 0 0-.496 7.341-3.075 15.377-2.58 8.035-5.555 12.995-8.135 16.665 0 0-.297.496-.297 1.091 0 .199 0 .397.099.596.397.694.992 1.785.992 1.785s.198.595 1.091.595z" class="TimeSig"/>
  <path d="M400.223 819.357c-.793 2.182-2.777 9.325-7.638 9.325-6.448 0-7.837-3.968-13.194-3.968-.793 0-1.587.099-2.579.297 0 0 2.48-3.77 12.995-7.043 10.516-3.274 13.194-8.432 13.194-14.384 0-4.166-1.885-12.4-16.864-12.4s-17.757 9.027-17.757 13.59c0 4.068 3.373 7.341 7.44 7.341a7.324 7.324 0 0 0 7.341-7.34c0-2.778-1.984-5.853-4.563-6.845-.298-.1-.695-.596-.695-1.092 0-.595.496-1.29 2.282-1.785.496-.199 1.885-.496 3.373-.496 5.654 0 6.745 3.472 6.745 8.531 0 11.606-13.788 14.086-19.542 22.717 0 0-2.976 4.166-2.976 8.829 0 4.662 2.38 4.96 3.571 4.96 1.587 0 3.274-1.29 3.274-3.076 0-.396-.1-.793-.298-1.29-.595-1.388-.793-2.48-.793-3.273 0-.297 0-.595.099-.893.099-.595.893-1.587 3.273-1.587 2.877 0 3.968 3.373 5.754 5.952 1.786 2.58 4.563 4.167 7.738 4.167 3.174 0 7.44-2.282 9.225-5.952 1.786-3.67 4.067-11.11 4.067-13.79 0-1.289-.793-1.884-1.686-1.884-.694 0-1.389.397-1.786 1.389" class="TimeSig"/>
  <path d="M383.66 877.19v7.341h-8.234c-.694 0-1.389.595-1.389 1.389v1.885c0 .793.695 1.389 1.389 1.389h30.058c.793 0 1.388-.596 1.388-1.39v-1.884c0-.794-.595-1.389-1.388-1.389h-8.83v-7.34h8.83c.793 0 1.388-.695 1.388-1.489v-1.884c0-.695-.595-1.39-1.388-1.39h-8.83v-15.772c0-.595-.297-1.091-.793-1.29l-1.19-.595c-.199-.099-.496-.198-.695-.198-.297.099-.694.198-.892.397l-9.028 8.233c-.297.298-.396.695-.396 1.091v8.135h-11.408s11.01-11.904 22.716-27.578c.397-.496.496-.992.496-1.389 0-.496-.198-.892-.297-.992l-2.183-2.182a1.52 1.52 0 0 0-.992-.397h-14.681c-.794 0-1.29.595-1.389 1.19 0 0-.496 7.341-3.075 15.377-2.58 8.035-5.555 12.995-8.135 16.665 0 0-.297.496-.297 1.091 0 .199 0 .397.099.596.397.694.992 1.785.992 1.785s.198.595 1.091.595z" class="TimeSig"/>
  <path d="M1002.106 813.9c4.96-1.884 8.432-5.058 8.432-10.514 0-.893-.297-12.103-17.36-12.103s-16.566 12.103-16.566 12.103h.1l-.1.198c0 3.571 2.877 6.349 6.448 6.349s6.349-2.778 6.349-6.349c0-2.877-2.183-5.654-4.96-6.25l.297-.297c1.39-.992 3.274-1.488 5.159-1.488 4.166 0 8.63 2.48 8.63 7.837 0 6.25-4.662 7.142-5.853 7.34-1.19.199-6.745.596-7.936.596s-1.29 1.388-1.29 1.388v1.984s.2 1.092 1.29 1.19c1.687.1 3.968.1 7.143.596 4.365.595 6.646 3.571 6.646 10.515 0 6.647-4.464 8.432-8.63 8.432-2.778 0-5.357-.793-6.448-1.587 3.273-.198 5.952-3.075 5.952-6.349 0-3.571-2.778-6.448-6.349-6.448a6.435 6.435 0 0 0-6.448 6.448c0 8.135 7.44 12.202 14.78 12.202 9.524 0 19.84-3.274 19.84-14.087 0-7.241-4.96-10.316-9.324-11.705z" class="TimeSig"/>
  <path d="M991.852 877.19v7.341h-8.234c-.694 0-1.389.595-1.389 1.389v1.885c0 .793.695 1.389 1.389 1.389h30.058c.793 0 1.388-.596 1.388-1.39v-1.884c0-.794-.595-1.389-1.388-1.389h-8.83v-7.34h8.83c.793 0 1.388-.695 1.388-1.489v-1.884c0-.695-.595-1.39-1.388-1.39h-8.83v-15.772c0-.595-.297-1.091-.793-1.29l-1.19-.595c-.199-.099-.496-.198-.695-.198-.297.099-.694.198-.892.397l-9.028 8.233c-.297.298-.396.695-.396 1.091v8.135h-11.408s11.01-11.904 22.716-27.578c.397-.496.496-.992.496-1.389 0-.496-.198-.892-.297-.992l-2.183-2.182a1.52 1.52 0 0 0-.992-.397h-14.681c-.794 0-1.29.595-1.389 1.19 0 0-.496 7.341-3.075 15.377-2.58 8.035-5.555 12.995-8.135 16.665 0 0-.297.496-.297 1.091 0 .199 0 .397.099.596.397.694.992 1.785.992 1.785s.198.595 1.091.595z" class="TimeSig"/>
  <path d="M1132.652 409.908c4.96-1.885 8.432-5.06 8.432-10.515 0-.893-.297-12.103-17.36-12.103s-16.566 12.103-16.566 12.103h.1l-.1.198c0 3.571 2.877 6.349 6.448 6.349s6.349-2.778 6.349-6.349c0-2.877-2.183-5.654-4.96-6.25l.297-.297c1.39-.992 3.274-1.488 5.159-1.488 4.166 0 8.63 2.48 8.63 7.837 0 6.25-4.662 7.142-5.853 7.34-1.19.199-6.745.596-7.936.596s-1.29 1.388-1.29 1.388v1.984s.2 1.092 1.29 1.19c1.687.1 3.968.1 7.143.596 4.365.595 6.646 3.571 6.646 10.515 0 6.647-4.464 8.432-8.63 8.432-2.778 0-5.357-.793-6.448-1.587 3.273-.198 5.952-3.075 5.952-6.349 0-3.571-2.778-6.448-6.349-6.448a6.435 6.435 0 0 0-6.448 6.448c0 8.135 7.44 12.202 14.78 12.202 9.524 0 19.84-3.274 19.84-14.087 0-7.241-4.96-10.316-9.324-11.705z" class="TimeSig"/>
  <path d="M1122.394 473.197v7.341h-8.234c-.694 0-1.389.595-1.389 1.389v1.885c0 .793.695 1.389 1.389 1.389h30.058c.793 0 1.388-.596 1.388-1.39v-1.884c0-.794-.595-1.389-1.388-1.389h-8.83v-7.34h8.83c.793 0 1.388-.695 1.388-1.489v-1.884c0-.695-.595-1.39-1.388-1.39h-8.83v-15.772c0-.595-.297-1.091-.793-1.29l-1.19-.595c-.199-.099-.496-.198-.695-.198-.297.099-.694.198-.892.397l-9.028 8.233c-.297.298-.396.695-.396 1.091v8.135h-11.408s11.01-11.904 22.716-27.578c.397-.496.496-.992.496-1.389 0-.496-.198-.892-.297-.992l-2.183-2.182a1.52 1.52 0 0 0-.992-.397h-14.681c-.794 0-1.29.595-1.389 1.19 0 0-.496 7.341-3.075 15.377-2.58 8.035-5.555 12.995-8.135 16.665 0 0-.297.496-.297 1.091 0 .199 0 .397.099.596.397.694.992 1.785.992 1.785s.198.595 1.091.595z" class="TimeSig"/>
  <path d="M2319.536 415.364c-.793 2.182-2.777 9.325-7.638 9.325-6.448 0-7.837-3.968-13.194-3.968-.793 0-1.587.099-2.579.297 0 0 2.48-3.77 12.995-7.043 10.516-3.274 13.194-8.432 13.194-14.384 0-4.166-1.885-12.4-16.864-12.4s-17.757 9.027-17.757 13.59c0 4.068 3.373 7.341 7.44 7.341a7.324 7.324 0 0 0 7.341-7.34c0-2.778-1.984-5.853-4.563-6.845-.298-.1-.695-.596-.695-1.092 0-.595.496-1.29 2.282-1.785.496-.199 1.885-.496 3.373-.496 5.654 0 6.745 3.472 6.745 8.531 0 11.606-13.788 14.086-19.542 22.717 0 0-2.976 4.166-2.976 8.829 0 4.662 2.38 4.96 3.571 4.96 1.587 0 3.274-1.29 3.274-3.076 0-.396-.1-.793-.298-1.29-.595-1.388-.793-2.48-.793-3.273 0-.297 0-.595.099-.893.099-.595.893-1.587 3.273-1.587 2.877 0 3.968 3.373 5.754 5.952 1.786 2.58 4.563 4.167 7.738 4.167 3.174 0 7.44-2.282 9.225-5.952 1.786-3.67 4.067-11.11 4.067-13.79 0-1.289-.793-1.884-1.686-1.884-.694 0-1.389.397-1.786 1.389" class="TimeSig"/>
  <path d="M2302.974 473.197v7.341h-8.234c-.694 0-1.389.595-1.389 1.389v1.885c0 .793.695 1.389 1.389 1.389h30.058c.793 0 1.388-.596 1.388-1.39v-1.884c0-.794-.595-1.389-1.388-1.389h-8.83v-7.34h8.83c.793 0 1.388-.695 1.388-1.489v-1.884c0-.695-.595-1.39-1.388-1.39h-8.83v-15.772c0-.595-.297-1.091-.793-1.29l-1.19-.595c-.199-.099-.496-.198-.695-.198-.297.099-.694.198-.892.397l-9.028 8.233c-.297.298-.396.695-.396 1.091v8.135h-11.408s11.01-11.904 22.716-27.578c.397-.496.496-.992.496-1.389 0-.496-.198-.892-.297-.992l-2.183-2.182a1.52 1.52 0 0 0-.992-.397h-14.681c-.794 0-1.29.595-1.389 1.19 0 0-.496 7.341-3.075 15.377-2.58 8.035-5.555 12.995-8.135 16.665 0 0-.297.496-.297 1.091 0 .199 0 .397.099.596.397.694.992 1.785.992 1.785s.198.595 1.091.595z" class="TimeSig"/>
  <path d="M517.028 431.037v-42.656c0-.694-.496-1.19-1.19-1.19h-9.821c-.199 0-.397.1-.596.198l-.396.397-11.11 19.245c-.1.198-.1.397-.1.595 0 .397.298.794.595.992l1.885 1.091c.198.1.397.199.595.199.397 0 .794-.298.992-.595l7.043-12.103v33.827h-7.539c-.694 0-1.19.496-1.19 1.19v2.183c0 .695.496 1.19 1.19 1.19h27.181c.694 0 1.091-.495 1.091-1.19v-2.182c0-.695-.397-1.19-1.091-1.19z" class="TimeSig"/>
  <path d="M507.66 473.197v7.341h-8.234c-.694 0-1.389.595-1.389 1.389v1.885c0 .793.695 1.389 1.389 1.389h30.058c.793 0 1.388-.596 1.388-1.39v-1.884c0-.794-.595-1.389-1.388-1.389h-8.83v-7.34h8.83c.793 0 1.388-.695 1.388-1.489v-1.884c0-.695-.595-1.39-1.388-1.39h-8.83v-15.772c0-.595-.297-1.091-.793-1.29l-1.19-.595c-.199-.099-.496-.198-.695-.198-.297.099-.694.198-.892.397l-9.028 8.233c-.297.298-.396.695-.396 1.091v8.135h-11.408s11.01-11.904 22.716-27.578c.397-.496.496-.992.496-1.389 0-.496-.198-.892-.297-.992l-2.183-2.182a1.52 1.52 0 0 0-.992-.397h-14.681c-.794 0-1.29.595-1.389 1.19 0 0-.496 7.341-3.075 15.377-2.58 8.035-5.555 12.995-8.135 16.665 0 0-.297.496-.297 1.091 0 .199 0 .397.099.596.397.694.992 1.785.992 1.785s.198.595 1.091.595z" class="TimeSig"/>
  <path d="M2049.26 835.03v-42.656c0-.694-.495-1.19-1.19-1.19h-9.82c-.199 0-.397.1-.596.198l-.396.397-11.11 19.245c-.1.198-.1.397-.1.595 0 .397.298.794.595.992l1.885 1.091c.198.1.397.199.595.199.397 0 .794-.298.992-.595l7.043-12.103v33.827h-7.539c-.694 0-1.19.496-1.19 1.19v2.183c0 .695.496 1.19 1.19 1.19h27.181c.694 0 1.091-.495 1.091-1.19v-2.182c0-.695-.397-1.19-1.091-1.19z" class="TimeSig"/>
  <path d="M2039.894 877.19v7.341h-8.234c-.694 0-1.389.595-1.389 1.389v1.885c0 .793.695 1.389 1.389 1.389h30.058c.793 0 1.388-.596 1.388-1.39v-1.884c0-.794-.595-1.389-1.388-1.389h-8.83v-7.34h8.83c.793 0 1.388-.695 1.388-1.489v-1.884c0-.695-.595-1.39-1.388-1.39h-8.83v-15.772c0-.595-.297-1.091-.793-1.29l-1.19-.595c-.199-.099-.496-.198-.695-.198-.297.099-.694.198-.892.397l-9.028 8.233c-.297.298-.396.695-.396 1.091v8.135h-11.408s11.01-11.904 22.716-27.578c.397-.496.496-.992.496-1.389 0-.496-.198-.892-.297-.992l-2.183-2.182a1.52 1.52 0 0 0-.992-.397h-14.681c-.794 0-1.29.595-1.389 1.19 0 0-.496 7.341-3.075 15.377-2.58 8.035-5.555 12.995-8.135 16.665 0 0-.297.496-.297 1.091 0 .199 0 .397.099.596.397.694.992 1.785.992 1.785s.198.595 1.091.595z" class="TimeSig"/>
  <path d="M2097.82 431.037v-42.656c0-.694-.495-1.19-1.19-1.19h-9.82c-.199 0-.397.1-.596.198l-.396.397-11.11 19.245c-.1.198-.1.397-.1.595 0 .397.298.794.595.992l1.885 1.091c.198.1.397.199.595.199.397 0 .794-.298.992-.595l7.043-12.103v33.827h-7.539c-.694 0-1.19.496-1.19 1.19v2.183c0 .695.496 1.19 1.19 1.19h27.181c.694 0 1.091-.495 1.091-1.19v-2.182c0-.695-.397-1.19-1.091-1.19z" class="TimeSig"/>
  <path d="M2088.454 473.197v7.341h-8.234c-.694 0-1.389.595-1.389 1.389v1.885c0 .793.695 1.389 1.389 1.389h30.058c.793 0 1.388-.596 1.388-1.39v-1.884c0-.794-.595-1.389-1.388-1.389h-8.83v-7.34h8.83c.793 0 1.388-.695 1.388-1.489v-1.884c0-.695-.595-1.39-1.388-1.39h-8.83v-15.772c0-.595-.297-1.091-.793-1.29l-1.19-.595c-.199-.099-.496-.198-.695-.198-.297.099-.694.198-.892.397l-9.028 8.233c-.297.298-.396.695-.396 1.091v8.135h-11.408s11.01-11.904 22.716-27.578c.397-.496.496-.992.496-1.389 0-.496-.198-.892-.297-.992l-2.183-2.182a1.52 1.52 0 0 0-.992-.397h-14.681c-.794 0-1.29.595-1.389 1.19 0 0-.496 7.341-3.075 15.377-2.58 8.035-5.555 12.995-8.135 16.665 0 0-.297.496-.297 1.091 0 .199 0 .397.099.596.397.694.992 1.785.992 1.785s.198.595 1.091.595z" class="TimeSig"/>
  <path d="M1634.04 835.03v-42.656c0-.694-.495-1.19-1.19-1.19h-9.82c-.199 0-.397.1-.596.198l-.396.397-11.11 19.245c-.1.198-.1.397-.1.595 0 .397.298.794.595.992l1.885 1.091c.198.1.397.199.595.199.397 0 .794-.298.992-.595l7.043-12.103v33.827h-7.539c-.694 0-1.19.496-1.19 1.19v2.183c0 .695.496 1.19 1.19 1.19h27.181c.694 0 1.091-.495 1.091-1.19v-2.182c0-.695-.397-1.19-1.091-1.19z" class="TimeSig"/>
  <path d="M1624.674 877.19v7.341h-8.234c-.694 0-1.389.595-1.389 1.389v1.885c0 .793.695 1.389 1.389 1.389h30.058c.793 0 1.388-.596 1.388-1.39v-1.884c0-.794-.595-1.389-1.388-1.389h-8.83v-7.34h8.83c.793 0 1.388-.695 1.388-1.489v-1.884c0-.695-.595-1.39-1.388-1.39h-8.83v-15.772c0-.595-.297-1.091-.793-1.29l-1.19-.595c-.199-.099-.496-.198-.695-.198-.297.099-.694.198-.892.397l-9.028 8.233c-.297.298-.396.695-.396 1.091v8.135h-11.408s11.01-11.904 22.716-27.578c.397-.496.496-.992.496-1.389 0-.496-.198-.892-.297-.992l-2.183-2.182a1.52 1.52 0 0 0-.992-.397h-14.681c-.794 0-1.29.595-1.389 1.19 0 0-.496 7.341-3.075 15.377-2.58 8.035-5.555 12.995-8.135 16.665 0 0-.297.496-.297 1.091 0 .199 0 .397.099.596.397.694.992 1.785.992 1.785s.198.595 1.091.595z" class="TimeSig"/>
  <path d="M805.941 415.364c-.793 2.182-2.777 9.325-7.638 9.325-6.448 0-7.837-3.968-13.194-3.968-.793 0-1.587.099-2.579.297 0 0 2.48-3.77 12.995-7.043 10.516-3.274 13.194-8.432 13.194-14.384 0-4.166-1.885-12.4-16.864-12.4s-17.757 9.027-17.757 13.59c0 4.068 3.373 7.341 7.44 7.341a7.324 7.324 0 0 0 7.341-7.34c0-2.778-1.984-5.853-4.563-6.845-.298-.1-.695-.596-.695-1.092 0-.595.496-1.29 2.282-1.785.496-.199 1.885-.496 3.373-.496 5.654 0 6.745 3.472 6.745 8.531 0 11.606-13.788 14.086-19.542 22.717 0 0-2.976 4.166-2.976 8.829 0 4.662 2.38 4.96 3.571 4.96 1.587 0 3.274-1.29 3.274-3.076 0-.396-.1-.793-.298-1.29-.595-1.388-.793-2.48-.793-3.273 0-.297 0-.595.099-.893.099-.595.893-1.587 3.273-1.587 2.877 0 3.968 3.373 5.754 5.952 1.786 2.58 4.563 4.167 7.738 4.167 3.174 0 7.44-2.282 9.225-5.952 1.786-3.67 4.067-11.11 4.067-13.79 0-1.289-.793-1.884-1.686-1.884-.694 0-1.389.397-1.786 1.389" class="TimeSig"/>
  <path d="M789.379 473.197v7.341h-8.234c-.694 0-1.389.595-1.389 1.389v1.885c0 .793.695 1.389 1.389 1.389h30.058c.793 0 1.388-.596 1.388-1.39v-1.884c0-.794-.595-1.389-1.388-1.389h-8.83v-7.34h8.83c.793 0 1.388-.695 1.388-1.489v-1.884c0-.695-.595-1.39-1.388-1.39h-8.83v-15.772c0-.595-.297-1.091-.793-1.29l-1.19-.595c-.199-.099-.496-.198-.695-.198-.297.099-.694.198-.892.397l-9.028 8.233c-.297.298-.396.695-.396 1.091v8.135H777.97s11.01-11.904 22.716-27.578c.397-.496.496-.992.496-1.389 0-.496-.198-.892-.297-.992l-2.183-2.182a1.52 1.52 0 0 0-.992-.397h-14.68c-.794 0-1.29.595-1.389 1.19 0 0-.496 7.341-3.075 15.377-2.58 8.035-5.555 12.995-8.135 16.665 0 0-.297.496-.297 1.091 0 .199 0 .397.099.596.397.694.992 1.785.992 1.785s.198.595 1.091.595z" class="TimeSig"/>
  <path d="M1566.34 431.037v-42.656c0-.694-.495-1.19-1.19-1.19h-9.82c-.199 0-.397.1-.596.198l-.396.397-11.11 19.245c-.1.198-.1.397-.1.595 0 .397.298.794.595.992l1.885 1.091c.198.1.397.199.595.199.397 0 .794-.298.992-.595l7.043-12.103v33.827h-7.539c-.694 0-1.19.496-1.19 1.19v2.183c0 .695.496 1.19 1.19 1.19h27.181c.694 0 1.091-.495 1.091-1.19v-2.182c0-.695-.397-1.19-1.091-1.19z" class="TimeSig"/>
  <path d="M1556.964 473.197v7.341h-8.234c-.694 0-1.389.595-1.389 1.389v1.885c0 .793.695 1.389 1.389 1.389h30.058c.793 0 1.388-.596 1.388-1.39v-1.884c0-.794-.595-1.389-1.388-1.389h-8.83v-7.34h8.83c.793 0 1.388-.695 1.388-1.489v-1.884c0-.695-.595-1.39-1.388-1.39h-8.83v-15.772c0-.595-.297-1.091-.793-1.29l-1.19-.595c-.199-.099-.496-.198-.695-.198-.297.099-.694.198-.892.397l-9.028 8.233c-.297.298-.396.695-.396 1.091v8.135h-11.408s11.01-11.904 22.716-27.578c.397-.496.496-.992.496-1.389 0-.496-.198-.892-.297-.992l-2.183-2.182a1.52 1.52 0 0 0-.992-.397h-14.681c-.794 0-1.29.595-1.389 1.19 0 0-.496 7.341-3.075 15.377-2.58 8.035-5.555 12.995-8.135 16.665 0 0-.297.496-.297 1.091 0 .199 0 .397.099.596.397.694.992 1.785.992 1.785s.198.595 1.091.595z" class="TimeSig"/>
  <path fill-rule="evenodd" d="M610.22 429.599h102.624v12.4H610.22z" class="Beam"/>
  <path fill-rule="evenodd" d="M712.844 448.199h-27.28v12.4h27.28z" class="Beam"/>
  <path fill-rule="evenodd" d="M1681.36 907.992h183.94v12.4h-183.94z" class="Beam"/>
  <path fill-rule="evenodd" d="M1865.3 889.392h-27.28v12.4h27.28z" class="Beam"/>
  <path d="M581.257 321.689h-32.945l-.825 15.29h2.365c.77-5.555 2.255-12.705 9.295-12.705 1.815 0 2.585.605 2.585 1.98v28.38c0 2.805 0 2.915-.33 3.41-.44.55-1.485.77-4.62.77h-1.43v2.585h18.865v-2.585h-1.43c-3.08 0-4.125-.22-4.565-.77-.33-.495-.33-.605-.33-3.41v-28.38c0-1.375.77-1.98 2.585-1.98 7.04 0 8.47 7.205 9.24 12.705h2.365zm14.233 13.255c-6.765 0-11.99 5.995-11.99 13.695 0 7.535 5.28 13.585 11.88 13.585s11.88-6.05 11.88-13.64c0-7.535-5.28-13.64-11.77-13.64m0 2.365c3.85 0 5.995 4.015 5.995 11.275 0 7.315-2.145 11.275-6.105 11.275s-6.105-3.96-6.105-11.22c0-7.48 2.09-11.33 6.215-11.33m64.066-16.005h-2.09l-2.2 3.245c-4.015-2.915-6.05-3.685-9.845-3.685q-7.837 0-13.365 6.6c-3.52 4.18-5.17 8.8-5.17 14.465 0 11.88 7.755 20.295 18.59 20.295 8.8 0 14.41-5.17 15.675-14.41l-2.585-.44c-1.485 8.195-5.665 12.265-12.43 12.265-8.14 0-11.99-5.61-11.99-17.49 0-6.27.825-10.395 2.695-13.695 1.705-3.08 5.06-5.005 8.635-5.005 3.85 0 7.26 2.035 9.35 5.555 1.045 1.815 1.815 3.85 3.135 8.195h2.42zm18.199 13.64c-6.765 0-11.99 5.995-11.99 13.695 0 7.535 5.28 13.585 11.88 13.585s11.88-6.05 11.88-13.64c0-7.535-5.28-13.64-11.77-13.64m0 2.365c3.85 0 5.995 4.015 5.995 11.275 0 7.315-2.145 11.275-6.105 11.275s-6.105-3.96-6.105-11.22c0-7.48 2.09-11.33 6.215-11.33m34.54 24.475 9.57-.385v-2.365h-.99c-3.135-.165-3.41-.495-3.41-4.015v-34.155l-10.78.605v2.365h3.245c2.09.055 2.365.385 2.365 2.75v12.43c-2.035-2.805-4.4-4.07-7.59-4.07-6.215 0-10.945 5.995-10.945 13.915 0 7.81 4.565 13.365 10.945 13.365 3.465 0 5.83-1.485 7.59-4.785zm-6.49-23.87c2.255 0 4.4 1.65 5.39 4.18.715 1.65 1.045 3.905 1.045 6.6 0 6.435-2.53 10.56-6.49 10.56-3.905 0-6.215-3.63-6.215-9.735 0-3.3.33-5.775 1.045-7.59.935-2.475 2.97-4.015 5.225-4.015m41.794 5.775c0-3.465-.605-5.225-2.2-6.545-1.815-1.485-4.51-2.2-8.03-2.2-6.215 0-10.725 2.915-10.725 6.93 0 2.035 1.265 3.355 3.19 3.355 1.76 0 2.97-1.155 2.97-2.805 0-.715-.275-1.485-.825-2.255-.33-.385-.385-.495-.385-.77 0-1.1 2.2-2.09 4.84-2.09 1.76 0 3.685.55 4.565 1.375 1.045.88 1.43 2.2 1.43 4.675v2.145c-5.72.99-7.535 1.43-10.23 2.475-4.785 1.76-7.04 4.29-7.04 7.81 0 3.96 3.08 6.435 7.975 6.435 3.795 0 7.205-1.54 9.57-4.345.88 2.805 2.255 3.905 4.84 3.905 2.475 0 5.06-1.595 5.06-3.19 0-.385-.22-.66-.55-.66-.22 0-.44.055-.825.22-.77.33-1.1.385-1.54.385-1.54 0-2.09-.99-2.09-3.795zm-5.17 6.71c0 3.3-.165 4.07-1.1 5.5-1.375 2.035-3.85 3.41-6.27 3.41-2.53 0-4.345-1.815-4.345-4.29 0-2.31 1.155-3.96 3.575-5.115 1.705-.77 3.85-1.32 8.14-2.035z" class="Marker"/>
  <path d="M2185.68 332.919h-8.55c-.71-13.35-10.68-24.119-22.16-25.098v-9.167c0-.89-.8-1.157-1.69-1.157-.98 0-1.78.267-1.78 1.157v9.167c-11.48.979-21.36 11.659-22.16 25.098h-9.44c-.97 0-1.24.801-1.24 1.691 0 .979.27 1.691 1.24 1.691h9.44c.8 13.35 10.68 24.208 22.16 25.098v9.968c0 .979.8 1.246 1.78 1.246.89 0 1.69-.267 1.69-1.246v-9.968c11.48-.89 21.45-11.748 22.16-25.098h8.55c.97 0 1.24-.712 1.24-1.691 0-.89-.27-1.691-1.24-1.691m-20.3 0h-10.41v-21.093c9.97.89 10.41 9.523 10.41 21.093m-13.88-21.093v21.093h-10.06c0-11.57 0-20.203 10.06-21.093m-10.06 24.475h10.06v21.716c-9.17-1.068-9.97-10.68-10.06-21.716m13.53 21.716v-21.716h10.41c-.17 10.947-1.51 20.648-10.41 21.716" class="Marker"/>
  <path d="M1962.3 520.089h-32.73v2.585h.99c3.14.055 4.18.22 4.62.77.33.495.33.605.33 3.41v26.18c0 2.805 0 2.915-.33 3.41-.44.55-1.48.77-4.62.77h-.99v2.585h18.87v-2.585h-1.82c-3.13 0-4.18-.22-4.62-.77-.33-.495-.33-.66-.33-3.41v-12.485h1.1c5.67-.22 7.7 1.815 7.92 7.92h2.59v-18.04h-2.59c-.33 5.39-2.47 7.48-7.7 7.535h-1.32v-12.54c-.05-2.31.5-2.695 3.47-2.75h2.53c9.02-.055 11.27 1.98 12.98 11.44h2.42zm11.92.385c-1.76 0-3.19 1.43-3.19 3.19s1.43 3.19 3.14 3.19c1.81 0 3.24-1.43 3.24-3.19s-1.43-3.19-3.19-3.19m2.59 13.695-10.34.605v2.365h2.8c2.09.055 2.37.385 2.37 2.75v15.73c-.06.825-.11 1.155-.33 1.43-.39.495-1.43.715-3.8.77h-.38v1.98h14.24v-1.98h-.38c-3.69-.11-4.18-.385-4.18-2.365zm16.98 0-9.51.605v2.365h1.98c2.09.055 2.36.385 2.36 2.75v15.73c-.05.825-.11 1.155-.33 1.43-.38.495-1.43.715-3.79.77h-.22v1.98h13.91v-1.98h-.22c-3.68-.11-4.18-.385-4.18-2.365v-8.14c0-2.695.39-5.17.99-6.435 1.16-2.475 3.63-4.18 6-4.18 1.43 0 3.08.77 3.9 1.925.83 1.21 1.21 2.86 1.21 5.5v11.495c-.05.825-.11 1.155-.33 1.43-.38.495-1.48.715-3.85.77h-.22v1.98h13.92v-1.98h-.22c-3.63-.11-4.13-.385-4.13-2.365v-11.055c0-3.96-.16-4.95-1.15-6.82-1.38-2.64-4.13-4.235-7.43-4.235-3.57 0-6.27 1.65-8.69 5.28zm48.17 13.255c.05-8.25-4.62-14.08-11.33-14.08-7.04 0-12.32 6.105-12.32 14.355 0 7.755 5 12.925 12.43 12.925 5.28 0 8.96-2.585 11.22-7.81l-1.93-1.045c-2.25 4.235-4.56 5.885-8.25 5.885-2.8 0-4.84-1.155-6.27-3.63-.99-1.65-1.43-3.575-1.37-6.6zm-17.77-2.365c0-3.85 1.76-9.35 6.38-9.35 3.3 0 5.5 2.915 5.5 7.37 0 1.54-.49 1.98-2.25 1.98z" class="Marker"/>
  <path d="M1868.92 519.891c.44 0 .89.178 1.15.89l.09.534c.54 1.958 1.61 6.141 5.25 6.141 2.94 0 4.9-1.691 4.9-4.806 0-5.963-4.72-7.832-10.15-7.832-4.98 0-10.59 6.141-10.59 13.172 0 1.691.36 3.471 1.16 5.251 2.31 5.251 12.64 11.57 13.17 11.748.27.178.45.356.45.623s-.18.623-.45 1.157c-.53.979-10.77 19.402-10.77 19.402-.09.267-.18.623-.18.89 0 .712.36 1.424.98 1.78.36.267.63.356.98.356.71 0 1.43-.445 1.78-1.068 0 0 11.04-19.936 11.31-20.381 0 .089.53-.356.8-.356 1.06.178 15.3 4.361 15.3 11.125 0 2.848-1.69 4.628-4.09 5.073h-.27c-1.42 0-2.67-.979-2.67-3.204v-.801c0-2.67-1.78-4.628-3.73-4.628-.36 0-.63 0-.89.089-2.67.623-5.08 1.78-5.08 4.628 0 .267 0 .623.09.979.54 3.026 3.74 7.12 8.55 7.12 6.76 0 12.46-6.23 12.46-12.905 0-.623-.09-1.335-.18-2.047-1.07-7.832-12.28-14.24-13.17-14.596-.81-.534-1.16-.801-1.16-1.157 0-.178.09-.267.09-.445.35-.534 11.39-20.47 11.39-20.47.27-.356.36-.623.36-.979 0-.712-.45-1.424-1.07-1.78-.36-.089-.71-.178-.98-.178-.71 0-1.43.356-1.78.979 0 0-11.3 20.47-11.75 21.093-.18.356-.36.534-.62.534-.18 0-.45-.089-.71-.178-.63-.267-11.4-4.361-13.27-7.565-.44-.801-.97-2.314-.97-3.738 0-1.958.89-3.916 3.82-4.45zm19.93 14.151c0 2.225 1.87 4.094 4.1 4.094 2.22 0 4-1.869 4-4.094a3.987 3.987 0 0 0-4-4.005c-2.23 0-4.1 1.78-4.1 4.005m-19.58 14.418a4.08 4.08 0 0 0-4.09-4.094c-2.14 0-4.01 1.869-4.01 4.094s1.87 4.005 4.01 4.005c2.31 0 4.09-1.78 4.09-4.005" class="Marker"/>
  <path d="M2052.93 951.392h18.48c4.89 0 8.63-.77 11.55-2.42 5.55-3.135 8.63-9.405 8.63-17.655 0-7.59-2.75-13.53-7.81-16.83-3.02-1.925-7.09-2.805-13.36-2.805h-17.49v2.585h1.04c3.08.055 4.13.22 4.57.77.33.495.33.605.33 3.41v26.18c0 2.805 0 2.915-.33 3.41-.44.55-1.49.715-4.57.77h-1.04zm15.23-2.585c-2.8 0-3.13-.33-3.13-3.025v-28.435c0-2.695.38-3.08 3.13-3.08h2.86c9.41 0 13.31 5.115 13.31 17.27 0 12.32-3.52 17.27-12.43 17.27zm33.49-3.52c-1.93 0-3.47 1.54-3.47 3.41 0 1.925 1.54 3.465 3.41 3.465 1.93 0 3.47-1.54 3.47-3.465 0-1.87-1.54-3.41-3.41-3.41m37.77-33.935h-2.03l-2.2 3.3c-2.64-2.475-6.11-3.795-10.01-3.795-7.26 0-12.05 4.565-12.05 11.495 0 5.995 2.97 8.965 11.06 11.055l5.22 1.32c4.07 1.045 4.46 1.155 5.61 2.035 1.65 1.265 2.53 3.08 2.53 5.225 0 2.2-.82 4.015-2.47 5.555-1.82 1.54-3.63 2.145-6.66 2.145-8.3 0-12.43-6.105-13.86-13.53h-2.36l.22 15.675h2.14l2.48-3.74c3.68 3.025 6.71 4.125 11.55 4.125 8.08 0 13.25-4.73 13.25-12.1 0-3.465-1.1-6.325-3.3-8.415-1.48-1.43-3.63-2.365-8.03-3.465l-5.88-1.485c-4.9-1.265-7.21-3.41-7.21-6.765 0-3.85 3.14-6.49 7.81-6.49 7.1 0 11 5.885 12.49 12.155h2.36zm12.15 33.935c-1.93 0-3.47 1.54-3.47 3.41 0 1.925 1.54 3.465 3.41 3.465 1.93 0 3.47-1.54 3.47-3.465 0-1.87-1.54-3.41-3.41-3.41m47.89-11.605c0-3.465-.61-5.225-2.2-6.545-1.82-1.485-4.51-2.2-8.03-2.2-6.22 0-10.73 2.915-10.73 6.93 0 2.035 1.27 3.355 3.19 3.355 1.76 0 2.97-1.155 2.97-2.805 0-.715-.27-1.485-.82-2.255-.33-.385-.39-.495-.39-.77 0-1.1 2.2-2.09 4.84-2.09 1.76 0 3.69.55 4.57 1.375 1.04.88 1.43 2.2 1.43 4.675v2.145c-5.72.99-7.54 1.43-10.23 2.475-4.79 1.76-7.04 4.29-7.04 7.81 0 3.96 3.08 6.435 7.97 6.435 3.8 0 7.21-1.54 9.57-4.345.88 2.805 2.26 3.905 4.84 3.905 2.48 0 5.06-1.595 5.06-3.19 0-.385-.22-.66-.55-.66-.22 0-.44.055-.82.22-.77.33-1.1.385-1.54.385-1.54 0-2.09-.99-2.09-3.795zm-5.17 6.71c0 3.3-.17 4.07-1.1 5.5-1.38 2.035-3.85 3.41-6.27 3.41-2.53 0-4.35-1.815-4.35-4.29 0-2.31 1.16-3.96 3.58-5.115 1.7-.77 3.85-1.32 8.14-2.035zm22.1-29.535-10.17.605v2.365h2.69c2.04.055 2.31.385 2.31 2.75v30.635c-.05.825-.11 1.155-.33 1.43-.38.495-1.43.715-3.79.77h-.39v1.98h14.25v-1.98h-.39c-3.68-.11-4.18-.385-4.18-2.365zm55.7.825h-32.73v2.585h.99c3.14.055 4.18.22 4.62.77.33.495.33.605.33 3.41v26.18c0 2.805 0 2.915-.33 3.41-.44.55-1.48.77-4.62.77h-.99v2.585h18.87v-2.585h-1.82c-3.13 0-4.18-.22-4.62-.77-.33-.495-.33-.66-.33-3.41v-12.485h1.1c5.67-.22 7.7 1.815 7.92 7.92h2.59v-18.04h-2.59c-.33 5.39-2.47 7.48-7.7 7.535h-1.32v-12.54c-.05-2.31.5-2.695 3.47-2.75h2.53c9.02-.055 11.27 1.98 12.98 11.44h2.42zm11.92.385c-1.76 0-3.19 1.43-3.19 3.19s1.43 3.19 3.14 3.19c1.81 0 3.24-1.43 3.24-3.19s-1.43-3.19-3.19-3.19m2.59 13.695-10.34.605v2.365h2.8c2.09.055 2.37.385 2.37 2.75v15.73c-.06.825-.11 1.155-.33 1.43-.39.495-1.43.715-3.8.77h-.38v1.98h14.24v-1.98h-.38c-3.69-.11-4.18-.385-4.18-2.365zm16.98 0-9.51.605v2.365h1.98c2.09.055 2.36.385 2.36 2.75v15.73c-.05.825-.11 1.155-.33 1.43-.38.495-1.43.715-3.79.77h-.22v1.98h13.91v-1.98h-.22c-3.68-.11-4.18-.385-4.18-2.365v-8.14c0-2.695.39-5.17.99-6.435 1.16-2.475 3.63-4.18 6-4.18 1.43 0 3.08.77 3.9 1.925.83 1.21 1.21 2.86 1.21 5.5v11.495c-.05.825-.11 1.155-.33 1.43-.38.495-1.48.715-3.85.77h-.22v1.98h13.92v-1.98h-.22c-3.63-.11-4.13-.385-4.13-2.365v-11.055c0-3.96-.16-4.95-1.15-6.82-1.38-2.64-4.13-4.235-7.43-4.235-3.57 0-6.27 1.65-8.69 5.28zm48.17 13.255c.05-8.25-4.62-14.08-11.33-14.08-7.04 0-12.32 6.105-12.32 14.355 0 7.755 5 12.925 12.43 12.925 5.28 0 8.96-2.585 11.22-7.81l-1.93-1.045c-2.25 4.235-4.56 5.885-8.25 5.885-2.8 0-4.84-1.155-6.27-3.63-.99-1.65-1.43-3.575-1.37-6.6zm-17.77-2.365c0-3.85 1.76-9.35 6.38-9.35 3.3 0 5.5 2.915 5.5 7.37 0 1.54-.49 1.98-2.25 1.98z" class="Jump"/>
  <path d="M1735.08 366.359h18.48c4.9 0 8.64-.77 11.55-2.42 5.56-3.135 8.64-9.405 8.64-17.655 0-7.59-2.75-13.53-7.81-16.83-3.03-1.925-7.1-2.805-13.37-2.805h-17.49v2.585h1.05c3.08.055 4.12.22 4.56.77.33.495.33.605.33 3.41v26.18c0 2.805 0 2.915-.33 3.41-.44.55-1.48.715-4.56.77h-1.05zm15.24-2.585c-2.81 0-3.14-.33-3.14-3.025v-28.435c0-2.695.39-3.08 3.14-3.08h2.86c9.4 0 13.31 5.115 13.31 17.27 0 12.32-3.52 17.27-12.43 17.27zm33.48-3.52c-1.92 0-3.46 1.54-3.46 3.41 0 1.925 1.54 3.465 3.41 3.465a3.45 3.45 0 0 0 3.46-3.465c0-1.87-1.54-3.41-3.41-3.41m42.9-33.99h-2.09l-2.2 3.245c-4.02-2.915-6.05-3.685-9.85-3.685-5.22 0-9.68 2.2-13.36 6.6-3.52 4.18-5.17 8.8-5.17 14.465 0 11.88 7.75 20.295 18.59 20.295 8.8 0 14.41-5.17 15.67-14.41l-2.58-.44c-1.49 8.195-5.67 12.265-12.43 12.265-8.14 0-11.99-5.61-11.99-17.49 0-6.27.82-10.395 2.69-13.695 1.71-3.08 5.06-5.005 8.64-5.005 3.85 0 7.26 2.035 9.35 5.555 1.04 1.815 1.81 3.85 3.13 8.195h2.42zm11.81 33.99c-1.93 0-3.47 1.54-3.47 3.41 0 1.925 1.54 3.465 3.41 3.465 1.93 0 3.47-1.54 3.47-3.465 0-1.87-1.54-3.41-3.41-3.41m47.88-11.605c0-3.465-.6-5.225-2.2-6.545-1.81-1.485-4.51-2.2-8.03-2.2-6.21 0-10.72 2.915-10.72 6.93 0 2.035 1.26 3.355 3.19 3.355 1.76 0 2.97-1.155 2.97-2.805 0-.715-.28-1.485-.83-2.255-.33-.385-.38-.495-.38-.77 0-1.1 2.2-2.09 4.84-2.09 1.76 0 3.68.55 4.56 1.375 1.05.88 1.43 2.2 1.43 4.675v2.145c-5.72.99-7.53 1.43-10.23 2.475-4.78 1.76-7.04 4.29-7.04 7.81 0 3.96 3.08 6.435 7.98 6.435 3.79 0 7.2-1.54 9.57-4.345.88 2.805 2.25 3.905 4.84 3.905 2.47 0 5.06-1.595 5.06-3.19 0-.385-.22-.66-.55-.66-.22 0-.44.055-.83.22-.77.33-1.1.385-1.54.385-1.54 0-2.09-.99-2.09-3.795zm-5.17 6.71c0 3.3-.16 4.07-1.1 5.5-1.37 2.035-3.85 3.41-6.27 3.41-2.53 0-4.34-1.815-4.34-4.29 0-2.31 1.15-3.96 3.57-5.115 1.71-.77 3.85-1.32 8.14-2.035zm22.11-29.535-10.17.605v2.365h2.69c2.04.055 2.31.385 2.31 2.75v30.635c-.05.825-.11 1.155-.33 1.43-.38.495-1.43.715-3.79.77h-.39v1.98h14.25v-1.98h-.39c-3.68-.11-4.18-.385-4.18-2.365zm56.52.44h-2.09l-2.2 3.245c-4.01-2.915-6.05-3.685-9.84-3.685-5.23 0-9.68 2.2-13.37 6.6-3.52 4.18-5.17 8.8-5.17 14.465 0 11.88 7.76 20.295 18.59 20.295 8.8 0 14.41-5.17 15.68-14.41l-2.59-.44c-1.48 8.195-5.66 12.265-12.43 12.265-8.14 0-11.99-5.61-11.99-17.49 0-6.27.83-10.395 2.7-13.695 1.7-3.08 5.06-5.005 8.63-5.005 3.85 0 7.26 2.035 9.35 5.555 1.05 1.815 1.82 3.85 3.14 8.195h2.42zm18.2 13.64c-6.76 0-11.99 5.995-11.99 13.695 0 7.535 5.28 13.585 11.88 13.585s11.88-6.05 11.88-13.64c0-7.535-5.28-13.64-11.77-13.64m0 2.365c3.85 0 6 4.015 6 11.275 0 7.315-2.15 11.275-6.11 11.275s-6.1-3.96-6.1-11.22c0-7.48 2.09-11.33 6.21-11.33m34.54 24.475 9.57-.385v-2.365h-.99c-3.13-.165-3.41-.495-3.41-4.015v-34.155l-10.78.605v2.365h3.25c2.09.055 2.36.385 2.36 2.75v12.43c-2.03-2.805-4.4-4.07-7.59-4.07-6.21 0-10.94 5.995-10.94 13.915 0 7.81 4.56 13.365 10.94 13.365 3.47 0 5.83-1.485 7.59-4.785zm-6.49-23.87c2.26 0 4.4 1.65 5.39 4.18.72 1.65 1.05 3.905 1.05 6.6 0 6.435-2.53 10.56-6.49 10.56-3.91 0-6.22-3.63-6.22-9.735 0-3.3.33-5.775 1.05-7.59.93-2.475 2.97-4.015 5.22-4.015m41.79 5.775c0-3.465-.6-5.225-2.2-6.545-1.81-1.485-4.51-2.2-8.03-2.2-6.21 0-10.72 2.915-10.72 6.93 0 2.035 1.26 3.355 3.19 3.355 1.76 0 2.97-1.155 2.97-2.805 0-.715-.28-1.485-.83-2.255-.33-.385-.38-.495-.38-.77 0-1.1 2.2-2.09 4.84-2.09 1.76 0 3.68.55 4.56 1.375 1.05.88 1.43 2.2 1.43 4.675v2.145c-5.72.99-7.53 1.43-10.23 2.475-4.78 1.76-7.04 4.29-7.04 7.81 0 3.96 3.08 6.435 7.98 6.435 3.79 0 7.2-1.54 9.57-4.345.88 2.805 2.25 3.905 4.84 3.905 2.47 0 5.06-1.595 5.06-3.19 0-.385-.22-.66-.55-.66-.22 0-.44.055-.83.22-.77.33-1.1.385-1.54.385-1.54 0-2.09-.99-2.09-3.795zm-5.17 6.71c0 3.3-.16 4.07-1.1 5.5-1.37 2.035-3.85 3.41-6.27 3.41-2.53 0-4.34-1.815-4.34-4.29 0-2.31 1.15-3.96 3.57-5.115 1.71-.77 3.85-1.32 8.14-2.035z" class="Jump"/>
  <path d="m1618.87 351.729-.6 2.75c-.5 2.2-.83 2.915-1.27 3.19-.55.385-.66.385-4.12.44h-10.62c1.93-1.65 3.36-2.695 5.5-4.125 7.76-5.005 9.35-6.215 10.95-8.25 1.87-2.475 2.97-5.39 2.97-7.975 0-5.885-5.78-10.34-13.53-10.34-7.48 0-13.26 4.84-13.26 11.11 0 3.85 2.15 6.325 5.45 6.325 2.86 0 4.67-1.815 4.67-4.675 0-2.365-1.04-3.74-3.57-4.95-.61-.275-.88-.605-.88-1.045 0-1.76 2.97-3.63 5.72-3.63 3.85 0 6.05 2.365 6.05 6.435 0 4.565-1.76 7.81-7.59 14.025-6.16 6.545-8.31 9.02-11.06 12.98v2.585c1.43-.165 2.04-.22 2.86-.22h20.68c1.05 0 1.71.055 3.36.22l1.26-14.85zm12.97 5.115c-2.86 0-5.17 2.31-5.17 5.17 0 2.805 2.31 5.17 5.12 5.17 2.91 0 5.22-2.31 5.22-5.17s-2.31-5.17-5.17-5.17" class="VoltaSegment"/>
  <path fill="none" stroke="currentColor" stroke-miterlimit="2" stroke-width="2.73" d="M1578.79 366.359v-54.561h472.56" class="VoltaSegment"/>
  <path d="M1174.94 327.419h-1.93c-3.46 2.585-7.37 3.685-13.91 3.795v3.08h2.31c4.89 0 4.95.11 4.89 4.62v19.525c0 3.41 0 3.575-.38 4.125-.5.605-1.6.825-4.57.825h-1.76v2.97h21.95v-2.97h-1.76c-2.92 0-3.96-.22-4.46-.825-.38-.55-.38-.77-.38-4.125zm18.8 29.425c-2.86 0-5.17 2.31-5.17 5.17 0 2.805 2.31 5.17 5.12 5.17 2.91 0 5.22-2.31 5.22-5.17s-2.31-5.17-5.17-5.17" class="VoltaSegment"/>
  <path fill="none" stroke="currentColor" stroke-miterlimit="2" stroke-width="2.73" d="M1144.22 366.359v-54.561h352.83v54.561" class="VoltaSegment"/>
  <path d="M1044.4 724.275h-1.93c-3.46 2.585-7.37 3.685-13.91 3.795v3.08h2.31c4.89 0 4.95.11 4.89 4.62v19.525c0 3.41 0 3.575-.38 4.125-.5.605-1.6.825-4.57.825h-1.76v2.97H1051v-2.97h-1.76c-2.92 0-3.96-.22-4.46-.825-.38-.55-.38-.77-.38-4.125zm18.8 29.425c-2.86 0-5.17 2.31-5.17 5.17 0 2.805 2.31 5.17 5.11 5.17 2.92 0 5.23-2.31 5.23-5.17s-2.31-5.17-5.17-5.17" class="VoltaSegment"/>
  <path fill="none" stroke="currentColor" stroke-miterlimit="2" stroke-width="2.73" d="M1013.67 763.215v-54.56h966.31v54.56" class="VoltaSegment"/>
  <path d="m2101.8 748.585-.61 2.75c-.49 2.2-.82 2.915-1.26 3.19-.55.385-.66.385-4.13.44h-10.61c1.92-1.65 3.35-2.695 5.5-4.125 7.75-5.005 9.35-6.215 10.94-8.25 1.87-2.475 2.97-5.39 2.97-7.975 0-5.885-5.77-10.34-13.53-10.34-7.48 0-13.25 4.84-13.25 11.11 0 3.85 2.14 6.325 5.44 6.325 2.86 0 4.68-1.815 4.68-4.675 0-2.365-1.05-3.74-3.58-4.95-.6-.275-.88-.605-.88-1.045 0-1.76 2.97-3.63 5.72-3.63 3.85 0 6.05 2.365 6.05 6.435 0 4.565-1.76 7.81-7.59 14.025-6.16 6.545-8.3 9.02-11.05 12.98v2.585c1.43-.165 2.03-.22 2.86-.22h20.68c1.04 0 1.7.055 3.35.22l1.27-14.85zm12.97 5.115c-2.86 0-5.17 2.31-5.17 5.17 0 2.805 2.31 5.17 5.12 5.17 2.91 0 5.22-2.31 5.22-5.17s-2.31-5.17-5.17-5.17" class="VoltaSegment"/>
  <path fill="none" stroke="currentColor" stroke-miterlimit="2" stroke-width="2.73" d="M2061.72 763.215v-54.56h251.81" class="VoltaSegment"/>
  <path d="M1725.99 827.392c0 2.778 2.182 4.96 4.96 4.96s4.96-2.182 4.96-4.96-2.182-4.96-4.96-4.96-4.96 2.182-4.96 4.96" class="NoteDot"/>
  <path d="M625.1 497.799c0 2.778 2.182 4.96 4.96 4.96s4.96-2.182 4.96-4.96-2.182-4.96-4.96-4.96-4.96 2.182-4.96 4.96" class="NoteDot"/>
</svg>
