<svg xmlns="http://www.w3.org/2000/svg" baseProfile="tiny" version="1.2" viewBox="336 324 822 114" width="100%" height="100%">
  <path fill="none" stroke="currentColor" stroke-linejoin="bevel" stroke-width="2.73" d="M336.599 386.199h821.271" class="StaffLines"/>
  <path fill="none" stroke="currentColor" stroke-linejoin="bevel" stroke-width="4.46" d="M794.598 335.235v101.928" class="BarLine"/>
  <path fill="none" stroke="currentColor" stroke-linejoin="bevel" stroke-width="4.46" d="M1132.82 335.235v101.928" class="BarLine"/>
  <path fill="none" stroke="currentColor" stroke-linejoin="bevel" stroke-width="13.64" d="M1151.05 335.235v101.928" class="BarLine"/>
  <path fill="none" stroke="currentColor" stroke-linejoin="bevel" stroke-width="2.48" d="M521.839 382.231v-58.032" class="Stem"/>
  <path fill="none" stroke="currentColor" stroke-linejoin="bevel" stroke-width="2.48" d="M597.219 382.231v-58.032" class="Stem"/>
  <path fill="none" stroke="currentColor" stroke-linejoin="bevel" stroke-width="2.48" d="M672.599 382.231v-58.032" class="Stem"/>
  <path fill="none" stroke="currentColor" stroke-linejoin="bevel" stroke-width="2.48" d="M860.062 382.231v-58.032" class="Stem"/>
  <path fill="none" stroke="currentColor" stroke-linejoin="bevel" stroke-width="2.48" d="M935.442 382.231v-58.032" class="Stem"/>
  <path fill="none" stroke="currentColor" stroke-linejoin="bevel" stroke-width="2.48" d="M1010.82 382.231v-58.032" class="Stem"/>
  <path d="M490.847 390.365c0 4.266 3.075 9.028 11.11 9.028 10.317 0 21.13-8.432 21.13-17.162 0-5.853-4.96-9.126-11.11-9.126-9.623 0-21.13 8.134-21.13 17.26" class="Note"/>
  <path d="M566.227 390.365c0 4.266 3.075 9.028 11.11 9.028 10.317 0 21.13-8.432 21.13-17.162 0-5.853-4.96-9.126-11.11-9.126-9.623 0-21.13 8.134-21.13 17.26" class="Note"/>
  <path d="M641.606 390.365c0 4.266 3.075 9.028 11.11 9.028 10.317 0 21.13-8.432 21.13-17.162 0-5.853-4.96-9.126-11.11-9.126-9.623 0-21.13 8.134-21.13 17.26" class="Note"/>
  <path d="M829.07 390.365c0 4.266 3.075 9.028 11.11 9.028 10.317 0 21.13-8.432 21.13-17.162 0-5.853-4.96-9.126-11.11-9.126-9.623 0-21.13 8.134-21.13 17.26" class="Note"/>
  <path d="M904.449 390.365c0 4.266 3.075 9.028 11.11 9.028 10.317 0 21.13-8.432 21.13-17.162 0-5.853-4.96-9.126-11.11-9.126-9.623 0-21.13 8.134-21.13 17.26" class="Note"/>
  <path d="M979.829 390.365c0 4.266 3.075 9.028 11.11 9.028 10.317 0 21.13-8.432 21.13-17.162 0-5.853-4.96-9.126-11.11-9.126-9.623 0-21.13 8.134-21.13 17.26" class="Note"/>
  <path d="M356.489 361.2c-.695 0-1.29.596-1.29 1.29v47.418c0 .694.595 1.29 1.29 1.29H367.4c.694 0 1.29-.596 1.29-1.29V362.49c0-.694-.596-1.29-1.29-1.29zm21.427 0c-.695 0-1.29.596-1.29 1.29v47.418c0 .694.595 1.29 1.29 1.29h10.912c.694 0 1.29-.596 1.29-1.29V362.49c0-.694-.596-1.29-1.29-1.29z" class="Clef"/>
  <path d="M434.159 373.997v7.341h-8.234c-.694 0-1.389.595-1.389 1.389v1.885c0 .793.695 1.389 1.389 1.389h30.058c.793 0 1.388-.596 1.388-1.39v-1.884c0-.794-.595-1.389-1.388-1.389h-8.83v-7.34h8.83c.793 0 1.388-.695 1.388-1.489v-1.884c0-.695-.595-1.39-1.388-1.39h-8.83v-15.772c0-.595-.297-1.091-.793-1.29l-1.19-.595c-.199-.099-.496-.198-.695-.198-.297.099-.694.198-.892.397l-9.028 8.233c-.297.298-.396.695-.396 1.091v8.135H422.75s11.01-11.904 22.716-27.578c.397-.496.496-.992.496-1.389 0-.496-.198-.892-.297-.992l-2.183-2.182a1.52 1.52 0 0 0-.992-.397h-14.68c-.794 0-1.29.595-1.389 1.19 0 0-.496 7.341-3.075 15.377-2.58 8.035-5.555 12.995-8.135 16.665 0 0-.297.496-.297 1.091 0 .199 0 .397.099.596.397.694.992 1.785.992 1.785s.198.595 1.091.595z" class="TimeSig"/>
  <path d="M434.159 423.597v7.341h-8.234c-.694 0-1.389.595-1.389 1.389v1.885c0 .793.695 1.389 1.389 1.389h30.058c.793 0 1.388-.596 1.388-1.39v-1.884c0-.794-.595-1.389-1.388-1.389h-8.83v-7.34h8.83c.793 0 1.388-.695 1.388-1.489v-1.884c0-.695-.595-1.39-1.388-1.39h-8.83v-15.772c0-.595-.297-1.091-.793-1.29l-1.19-.595c-.199-.099-.496-.198-.695-.198-.297.099-.694.198-.892.397l-9.028 8.233c-.297.298-.396.695-.396 1.091v8.135H422.75s11.01-11.904 22.716-27.578c.397-.496.496-.992.496-1.389 0-.496-.198-.892-.297-.992l-2.183-2.182a1.52 1.52 0 0 0-.992-.397h-14.68c-.794 0-1.29.595-1.389 1.19 0 0-.496 7.341-3.075 15.377-2.58 8.035-5.555 12.995-8.135 16.665 0 0-.297.496-.297 1.091 0 .199 0 .397.099.596.397.694.992 1.785.992 1.785s.198.595 1.091.595z" class="TimeSig"/>
  <path d="M739.802 402.666a6 6 0 0 1-.595-.694l-11.408-14.087c-.1-.099-.199-.396-.199-.595 0-.297.1-.694.199-.893l10.118-15.276c.1-.199.199-.496.199-.695v-.893c0-.297-.1-.595-.298-.793l-16.07-21.725s-.397-.595-.992-.595c-.298 0-.496 0-.794.297a1.2 1.2 0 0 0-.496.992c0 .596.298 1.092.298 1.092l7.539 10.316q.297.447.297 1.19c0 .398-.099.894-.297 1.191l-10.02 15.277a2.3 2.3 0 0 0-.198.794v.892c0 .298.1.596.298.794l11.11 13.789c-.397-.1-1.29-.298-2.48-.298-5.059 0-9.027 4.167-9.027 9.226 0 1.389.298 2.777 1.091 3.869 2.083 3.174 9.523 12.598 9.523 12.598s.496.595 1.19.595c.2 0 .398 0 .596-.198.496-.397.694-.794.694-1.19 0-.397-.198-.695-.297-.893-.298-.496-3.472-6.25-3.472-6.25s-.695-1.389-.695-3.174c0-3.175 2.381-5.754 5.556-5.754 1.29 0 2.38.397 3.174.893l3.869 2.48s.397.198.793.198c.397 0 .695-.099.992-.496q.298-.446.298-.893c0-.297-.1-.496-.298-.793z" class="Rest"/>
  <path d="M1078.026 402.666a6 6 0 0 1-.595-.694l-11.408-14.087c-.1-.099-.199-.396-.199-.595 0-.297.1-.694.199-.893l10.118-15.276c.1-.199.199-.496.199-.695v-.893c0-.297-.1-.595-.298-.793l-16.07-21.725s-.397-.595-.992-.595c-.298 0-.496 0-.794.297a1.2 1.2 0 0 0-.496.992c0 .596.298 1.092.298 1.092l7.539 10.316q.297.447.297 1.19c0 .398-.099.894-.297 1.191l-10.02 15.277a2.3 2.3 0 0 0-.198.794v.892c0 .298.1.596.298.794l11.11 13.789c-.397-.1-1.29-.298-2.48-.298-5.059 0-9.027 4.167-9.027 9.226 0 1.389.298 2.777 1.091 3.869 2.083 3.174 9.523 12.598 9.523 12.598s.496.595 1.19.595c.2 0 .398 0 .596-.198.496-.397.694-.794.694-1.19 0-.397-.198-.695-.297-.893-.298-.496-3.472-6.25-3.472-6.25s-.695-1.389-.695-3.174c0-3.175 2.381-5.754 5.556-5.754 1.29 0 2.38.397 3.174.893l3.869 2.48s.397.198.793.198c.397 0 .695-.099.992-.496q.298-.446.298-.893c0-.297-.1-.496-.298-.793z" class="Rest"/>
</svg>
