<svg xmlns="http://www.w3.org/2000/svg" width="581px" height="121px" baseProfile="tiny" version="1.2" viewBox="336 317 581 121">
  <path fill="none" stroke="#000" stroke-linejoin="bevel" stroke-width="2.73" d="M336.599 386.199h579.985" class="StaffLines"/>
  <path fill="none" stroke="#000" stroke-linejoin="bevel" stroke-width="4.46" d="M891.536 335.235v101.928" class="BarLine"/>
  <path fill="none" stroke="#000" stroke-linejoin="bevel" stroke-width="13.64" d="M909.764 335.235v101.928" class="BarLine"/>
  <path fill="none" stroke="#000" stroke-linejoin="bevel" stroke-width="2.48" d="M537.959 382.231v-58.032" class="Stem"/>
  <path fill="none" stroke="#000" stroke-linejoin="bevel" stroke-width="2.48" d="M626.191 382.231v-58.032" class="Stem"/>
  <path fill="none" stroke="#000" stroke-linejoin="bevel" stroke-width="2.48" d="M714.422 382.231v-58.032" class="Stem"/>
  <path fill="none" stroke="#000" stroke-linejoin="bevel" stroke-width="2.48" d="M773.243 382.231v-58.032" class="Stem"/>
  <path fill="none" stroke="#000" stroke-linejoin="bevel" stroke-width="2.48" d="M832.064 382.231v-58.032" class="Stem"/>
  <path d="M506.967 390.365c0 4.266 3.075 9.028 11.11 9.028 10.317 0 21.13-8.432 21.13-17.162 0-5.853-4.96-9.126-11.11-9.126-9.623 0-21.13 8.134-21.13 17.26" class="Note"/>
  <path d="M595.199 390.365c0 4.266 3.075 9.028 11.11 9.028 10.317 0 21.13-8.432 21.13-17.162 0-5.853-4.96-9.126-11.11-9.126-9.623 0-21.13 8.134-21.13 17.26" class="Note"/>
  <path d="M683.43 390.365c0 4.266 3.075 9.028 11.11 9.028 10.317 0 21.13-8.432 21.13-17.162 0-5.853-4.96-9.126-11.11-9.126-9.623 0-21.13 8.134-21.13 17.26" class="Note"/>
  <path d="M742.251 390.365c0 4.266 3.075 9.028 11.11 9.028 10.317 0 21.13-8.432 21.13-17.162 0-5.853-4.96-9.126-11.11-9.126-9.623 0-21.13 8.134-21.13 17.26" class="Note"/>
  <path d="M801.072 390.365c0 4.266 3.075 9.028 11.11 9.028 10.317 0 21.13-8.432 21.13-17.162 0-5.853-4.96-9.126-11.11-9.126-9.623 0-21.13 8.134-21.13 17.26" class="Note"/>
  <path d="M356.489 361.2c-.695 0-1.29.596-1.29 1.29v47.418c0 .694.595 1.29 1.29 1.29H367.4c.694 0 1.29-.596 1.29-1.29V362.49c0-.694-.596-1.29-1.29-1.29zm21.427 0c-.695 0-1.29.596-1.29 1.29v47.418c0 .694.595 1.29 1.29 1.29h10.912c.694 0 1.29-.596 1.29-1.29V362.49c0-.694-.596-1.29-1.29-1.29z" class="Clef"/>
  <path d="M434.159 373.997v7.341h-8.234c-.694 0-1.389.595-1.389 1.389v1.885c0 .793.695 1.389 1.389 1.389h30.058c.793 0 1.388-.596 1.388-1.39v-1.884c0-.794-.595-1.389-1.388-1.389h-8.83v-7.34h8.83c.793 0 1.388-.695 1.388-1.489v-1.884c0-.695-.595-1.39-1.388-1.39h-8.83v-15.772c0-.595-.297-1.091-.793-1.29l-1.19-.595c-.199-.099-.496-.198-.695-.198-.297.099-.694.198-.892.397l-9.028 8.233c-.297.298-.396.695-.396 1.091v8.135H422.75s11.01-11.904 22.716-27.578c.397-.496.496-.992.496-1.389 0-.496-.198-.892-.297-.992l-2.183-2.182a1.52 1.52 0 0 0-.992-.397h-14.68c-.794 0-1.29.595-1.389 1.19 0 0-.496 7.341-3.075 15.377-2.58 8.035-5.555 12.995-8.135 16.665 0 0-.297.496-.297 1.091 0 .199 0 .397.099.596.397.694.992 1.785.992 1.785s.198.595 1.091.595z" class="TimeSig"/>
  <path d="M434.159 423.597v7.341h-8.234c-.694 0-1.389.595-1.389 1.389v1.885c0 .793.695 1.389 1.389 1.389h30.058c.793 0 1.388-.596 1.388-1.39v-1.884c0-.794-.595-1.389-1.388-1.389h-8.83v-7.34h8.83c.793 0 1.388-.695 1.388-1.489v-1.884c0-.695-.595-1.39-1.388-1.39h-8.83v-15.772c0-.595-.297-1.091-.793-1.29l-1.19-.595c-.199-.099-.496-.198-.695-.198-.297.099-.694.198-.892.397l-9.028 8.233c-.297.298-.396.695-.396 1.091v8.135H422.75s11.01-11.904 22.716-27.578c.397-.496.496-.992.496-1.389 0-.496-.198-.892-.297-.992l-2.183-2.182a1.52 1.52 0 0 0-.992-.397h-14.68c-.794 0-1.29.595-1.389 1.19 0 0-.496 7.341-3.075 15.377-2.58 8.035-5.555 12.995-8.135 16.665 0 0-.297.496-.297 1.091 0 .199 0 .397.099.596.397.694.992 1.785.992 1.785s.198.595 1.091.595z" class="TimeSig"/>
  <path fill-rule="evenodd" d="M713.182 317.998h61.301v12.401h-61.301z" class="Beam"/>
</svg>
