<svg xmlns="http://www.w3.org/2000/svg" width="772px" height="133px" baseProfile="tiny" version="1.2" viewBox="336 305 772 133">
  <path fill="none" stroke="currentColor" stroke-linejoin="bevel" stroke-width="2.73" d="M336.599 386.199h770.431" class="StaffLines"/>
  <path fill="none" stroke="currentColor" stroke-linejoin="bevel" stroke-width="4.46" d="M1081.98 335.235v101.928" class="BarLine"/>
  <path fill="none" stroke="currentColor" stroke-linejoin="bevel" stroke-width="13.64" d="M1100.21 335.235v101.928" class="BarLine"/>
  <path fill="none" stroke="currentColor" stroke-linejoin="bevel" stroke-width="2.48" d="M592.508 382.231v-58.032" class="Stem"/>
  <path fill="none" stroke="currentColor" stroke-linejoin="bevel" stroke-width="2.48" d="M663.176 382.231v-58.032" class="Stem"/>
  <path fill="none" stroke="currentColor" stroke-linejoin="bevel" stroke-width="2.48" d="M804.513 382.231v-58.032" class="Stem"/>
  <path fill="none" stroke="currentColor" stroke-linejoin="bevel" stroke-width="2.48" d="M875.182 382.231v-58.032" class="Stem"/>
  <path fill="none" stroke="currentColor" stroke-linejoin="bevel" stroke-width="2.48" d="M945.85 382.231v-70.433" class="Stem"/>
  <path fill="none" stroke="currentColor" stroke-linejoin="bevel" stroke-width="2.48" d="M992.962 382.231v-70.433" class="Stem"/>
  <path d="M561.515 390.365c0 4.266 3.075 9.028 11.11 9.028 10.317 0 21.13-8.432 21.13-17.162 0-5.853-4.96-9.126-11.11-9.126-9.623 0-21.13 8.134-21.13 17.26" class="Note"/>
  <path d="M632.184 390.365c0 4.266 3.075 9.028 11.11 9.028 10.317 0 21.13-8.432 21.13-17.162 0-5.853-4.96-9.126-11.11-9.126-9.623 0-21.13 8.134-21.13 17.26" class="Note"/>
  <path d="M773.521 390.365c0 4.266 3.075 9.028 11.11 9.028 10.317 0 21.13-8.432 21.13-17.162 0-5.853-4.96-9.126-11.11-9.126-9.623 0-21.13 8.134-21.13 17.26" class="Note"/>
  <path d="M844.189 390.365c0 4.266 3.075 9.028 11.11 9.028 10.317 0 21.13-8.432 21.13-17.162 0-5.853-4.96-9.126-11.11-9.126-9.623 0-21.13 8.134-21.13 17.26" class="Note"/>
  <path d="M914.858 390.365c0 4.266 3.075 9.028 11.11 9.028 10.317 0 21.13-8.432 21.13-17.162 0-5.853-4.96-9.126-11.11-9.126-9.623 0-21.13 8.134-21.13 17.26" class="Note"/>
  <path d="M961.97 390.365c0 4.266 3.075 9.028 11.11 9.028 10.317 0 21.13-8.432 21.13-17.162 0-5.853-4.96-9.126-11.11-9.126-9.623 0-21.13 8.134-21.13 17.26" class="Note"/>
  <path d="M356.489 361.2c-.695 0-1.29.596-1.29 1.29v47.418c0 .694.595 1.29 1.29 1.29H367.4c.694 0 1.29-.596 1.29-1.29V362.49c0-.694-.596-1.29-1.29-1.29zm21.427 0c-.695 0-1.29.596-1.29 1.29v47.418c0 .694.595 1.29 1.29 1.29h10.912c.694 0 1.29-.596 1.29-1.29V362.49c0-.694-.596-1.29-1.29-1.29z" class="Clef"/>
  <path d="M434.159 373.997v7.341h-8.234c-.694 0-1.389.595-1.389 1.389v1.885c0 .793.695 1.389 1.389 1.389h30.058c.793 0 1.388-.596 1.388-1.39v-1.884c0-.794-.595-1.389-1.388-1.389h-8.83v-7.34h8.83c.793 0 1.388-.695 1.388-1.489v-1.884c0-.695-.595-1.39-1.388-1.39h-8.83v-15.772c0-.595-.297-1.091-.793-1.29l-1.19-.595c-.199-.099-.496-.198-.695-.198-.297.099-.694.198-.892.397l-9.028 8.233c-.297.298-.396.695-.396 1.091v8.135H422.75s11.01-11.904 22.716-27.578c.397-.496.496-.992.496-1.389 0-.496-.198-.892-.297-.992l-2.183-2.182a1.52 1.52 0 0 0-.992-.397h-14.68c-.794 0-1.29.595-1.389 1.19 0 0-.496 7.341-3.075 15.377-2.58 8.035-5.555 12.995-8.135 16.665 0 0-.297.496-.297 1.091 0 .199 0 .397.099.596.397.694.992 1.785.992 1.785s.198.595 1.091.595z" class="TimeSig"/>
  <path d="M434.159 423.597v7.341h-8.234c-.694 0-1.389.595-1.389 1.389v1.885c0 .793.695 1.389 1.389 1.389h30.058c.793 0 1.388-.596 1.388-1.39v-1.884c0-.794-.595-1.389-1.388-1.389h-8.83v-7.34h8.83c.793 0 1.388-.695 1.388-1.489v-1.884c0-.695-.595-1.39-1.388-1.39h-8.83v-15.772c0-.595-.297-1.091-.793-1.29l-1.19-.595c-.199-.099-.496-.198-.695-.198-.297.099-.694.198-.892.397l-9.028 8.233c-.297.298-.396.695-.396 1.091v8.135H422.75s11.01-11.904 22.716-27.578c.397-.496.496-.992.496-1.389 0-.496-.198-.892-.297-.992l-2.183-2.182a1.52 1.52 0 0 0-.992-.397h-14.68c-.794 0-1.29.595-1.389 1.19 0 0-.496 7.341-3.075 15.377-2.58 8.035-5.555 12.995-8.135 16.665 0 0-.297.496-.297 1.091 0 .199 0 .397.099.596.397.694.992 1.785.992 1.785s.198.595 1.091.595z" class="TimeSig"/>
  <path d="M517.333 366.061c-.099 0-.297-.099-.396-.099-.596 0-1.092.298-1.29.794-2.282 4.563-7.043 10.713-12.4 11.705 1.091-1.29 1.786-2.876 1.786-4.761 0-3.869-3.175-7.043-7.044-7.043-3.968 0-7.142 3.174-7.142 7.043 0 5.357 5.258 7.837 9.92 7.837 5.258 0 8.73-2.48 12.102-6.15L501.561 410.7l2.678.794 13.888-43.747c.1-.1.1-.298.1-.496q0-.744-.894-1.19" class="Rest"/>
  <path d="M729.338 366.061c-.099 0-.297-.099-.396-.099-.596 0-1.092.298-1.29.794-2.282 4.563-7.043 10.713-12.4 11.705 1.091-1.29 1.786-2.876 1.786-4.761 0-3.869-3.175-7.043-7.044-7.043-3.968 0-7.142 3.174-7.142 7.043 0 5.357 5.258 7.837 9.92 7.837 5.258 0 8.73-2.48 12.102-6.15L713.566 410.7l2.678.794 13.888-43.747c.1-.1.1-.298.1-.496q0-.744-.894-1.19" class="Rest"/>
  <path d="M1035.566 366.061c-.099 0-.297-.099-.396-.099-.596 0-1.092.298-1.29.794-2.282 4.563-7.043 10.713-12.4 11.705 1.091-1.29 1.786-2.876 1.786-4.761 0-3.869-3.175-7.043-7.044-7.043-3.968 0-7.142 3.174-7.142 7.043 0 5.357 5.258 7.837 9.92 7.837 5.258 0 8.73-2.48 12.102-6.15l-11.308 35.314 2.678.794 13.888-43.747c.1-.1.1-.298.1-.496q0-.744-.894-1.19" class="Rest"/>
  <path fill-rule="evenodd" d="M591.268 317.998h73.148v12.401h-73.148z" class="Beam"/>
  <path fill-rule="evenodd" d="M803.273 317.998h73.149v12.401h-73.149z" class="Beam"/>
  <path fill-rule="evenodd" d="M944.61 305.598h49.592v12.4H944.61z" class="Beam"/>
  <path fill-rule="evenodd" d="M944.61 324.199h49.592v12.4H944.61z" class="Beam"/>
</svg>
