<svg xmlns="http://www.w3.org/2000/svg" width="662px" height="161px" baseProfile="tiny" version="1.2" viewBox="336 277 662 161">
  <path fill="none" stroke="currentColor" stroke-linejoin="bevel" stroke-width="2.73" d="M336.599 386.199h660.989" class="StaffLines"/>
  <path fill="none" stroke="currentColor" stroke-linejoin="bevel" stroke-width="4.46" d="M972.54 335.235v101.928" class="BarLine"/>
  <path fill="none" stroke="currentColor" stroke-linejoin="bevel" stroke-width="13.64" d="M990.768 335.235v101.928" class="BarLine"/>
  <path fill="none" stroke="currentColor" stroke-linejoin="bevel" stroke-width="2.48" d="M521.839 382.231v-58.032" class="Stem"/>
  <path fill="none" stroke="currentColor" stroke-linejoin="bevel" stroke-width="2.48" d="M656.216 382.231v-70.433" class="Stem"/>
  <path fill="none" stroke="currentColor" stroke-linejoin="bevel" stroke-width="2.48" d="M703.328 382.231v-70.433" class="Stem"/>
  <path fill="none" stroke="currentColor" stroke-linejoin="bevel" stroke-width="2.48" d="M750.44 382.231v-58.032" class="Stem"/>
  <path fill="none" stroke="currentColor" stroke-linejoin="bevel" stroke-width="2.48" d="M834.06 382.231v-58.032" class="Stem"/>
  <path fill="none" stroke="currentColor" stroke-linejoin="bevel" stroke-width="2.48" d="M917.68 382.231v-58.032" class="Stem"/>
  <path d="M490.847 390.365c0 4.266 3.075 9.028 11.11 9.028 10.317 0 21.13-8.432 21.13-17.162 0-5.853-4.96-9.126-11.11-9.126-9.623 0-21.13 8.134-21.13 17.26" class="Note"/>
  <path d="M625.224 390.365c0 4.266 3.075 9.028 11.11 9.028 10.317 0 21.13-8.432 21.13-17.162 0-5.853-4.96-9.126-11.11-9.126-9.623 0-21.13 8.134-21.13 17.26" class="Note"/>
  <path d="M672.336 390.365c0 4.266 3.075 9.028 11.11 9.028 10.317 0 21.13-8.432 21.13-17.162 0-5.853-4.96-9.126-11.11-9.126-9.623 0-21.13 8.134-21.13 17.26" class="Note"/>
  <path d="M719.448 390.365c0 4.266 3.075 9.028 11.11 9.028 10.317 0 21.13-8.432 21.13-17.162 0-5.853-4.96-9.126-11.11-9.126-9.623 0-21.13 8.134-21.13 17.26" class="Note"/>
  <path d="M803.068 390.365c0 4.266 3.075 9.028 11.11 9.028 10.317 0 21.13-8.432 21.13-17.162 0-5.853-4.96-9.126-11.11-9.126-9.623 0-21.13 8.134-21.13 17.26" class="Note"/>
  <path d="M886.688 390.365c0 4.266 3.075 9.028 11.11 9.028 10.317 0 21.13-8.432 21.13-17.162 0-5.853-4.96-9.126-11.11-9.126-9.623 0-21.13 8.134-21.13 17.26" class="Note"/>
  <path d="M356.489 361.2c-.695 0-1.29.596-1.29 1.29v47.418c0 .694.595 1.29 1.29 1.29H367.4c.694 0 1.29-.596 1.29-1.29V362.49c0-.694-.596-1.29-1.29-1.29zm21.427 0c-.695 0-1.29.596-1.29 1.29v47.418c0 .694.595 1.29 1.29 1.29h10.912c.694 0 1.29-.596 1.29-1.29V362.49c0-.694-.596-1.29-1.29-1.29z" class="Clef"/>
  <path d="M434.159 373.997v7.341h-8.234c-.694 0-1.389.595-1.389 1.389v1.885c0 .793.695 1.389 1.389 1.389h30.058c.793 0 1.388-.596 1.388-1.39v-1.884c0-.794-.595-1.389-1.388-1.389h-8.83v-7.34h8.83c.793 0 1.388-.695 1.388-1.489v-1.884c0-.695-.595-1.39-1.388-1.39h-8.83v-15.772c0-.595-.297-1.091-.793-1.29l-1.19-.595c-.199-.099-.496-.198-.695-.198-.297.099-.694.198-.892.397l-9.028 8.233c-.297.298-.396.695-.396 1.091v8.135H422.75s11.01-11.904 22.716-27.578c.397-.496.496-.992.496-1.389 0-.496-.198-.892-.297-.992l-2.183-2.182a1.52 1.52 0 0 0-.992-.397h-14.68c-.794 0-1.29.595-1.389 1.19 0 0-.496 7.341-3.075 15.377-2.58 8.035-5.555 12.995-8.135 16.665 0 0-.297.496-.297 1.091 0 .199 0 .397.099.596.397.694.992 1.785.992 1.785s.198.595 1.091.595z" class="TimeSig"/>
  <path d="M434.159 423.597v7.341h-8.234c-.694 0-1.389.595-1.389 1.389v1.885c0 .793.695 1.389 1.389 1.389h30.058c.793 0 1.388-.596 1.388-1.39v-1.884c0-.794-.595-1.389-1.388-1.389h-8.83v-7.34h8.83c.793 0 1.388-.695 1.388-1.489v-1.884c0-.695-.595-1.39-1.388-1.39h-8.83v-15.772c0-.595-.297-1.091-.793-1.29l-1.19-.595c-.199-.099-.496-.198-.695-.198-.297.099-.694.198-.892.397l-9.028 8.233c-.297.298-.396.695-.396 1.091v8.135H422.75s11.01-11.904 22.716-27.578c.397-.496.496-.992.496-1.389 0-.496-.198-.892-.297-.992l-2.183-2.182a1.52 1.52 0 0 0-.992-.397h-14.68c-.794 0-1.29.595-1.389 1.19 0 0-.496 7.341-3.075 15.377-2.58 8.035-5.555 12.995-8.135 16.665 0 0-.297.496-.297 1.091 0 .199 0 .397.099.596.397.694.992 1.785.992 1.785s.198.595 1.091.595z" class="TimeSig"/>
  <path fill-rule="evenodd" d="M654.976 305.598h49.592v12.4h-49.592z" class="Beam"/>
  <path fill-rule="evenodd" d="M654.976 324.199h49.592v12.4h-49.592z" class="Beam"/>
  <path d="M838.017 292.318c2.115-.675 2.97-1.035 4.05-1.755 2.115-1.395 3.42-3.87 3.42-6.39 0-4.275-3.42-7.155-8.46-7.155-4.905 0-9.045 3.06-9.045 6.75 0 1.845 1.125 3.105 2.835 3.105 1.485 0 2.565-1.08 2.565-2.565 0-.765-.225-1.305-.945-2.025-.45-.405-.63-.72-.63-1.035 0-1.08 2.25-2.205 4.365-2.205 3.015 0 4.815 1.665 4.815 4.455 0 4.005-2.835 7.785-5.85 7.785-.135 0-.54-.045-1.035-.09-1.305-.09-1.305-.09-1.575-.09-.99 0-1.53.45-1.53 1.26 0 .72.495 1.17 1.305 1.17.225 0 .54-.045.9-.09a9 9 0 0 1 1.71-.18c2.115 0 3.555 1.89 3.555 4.68 0 4.86-2.385 9.54-7.83 9.54-2.52 0-4.68-1.26-4.68-2.7 0-.495.18-.675.9-.99 1.305-.585 1.845-1.395 1.845-2.61 0-1.575-1.26-2.79-2.88-2.79-1.935 0-3.195 1.53-3.195 3.87 0 4.365 3.33 7.11 8.73 7.11 6.795 0 11.97-4.545 11.97-10.575 0-3.51-2.16-5.49-5.31-6.48" class="Tuplet"/>
  <path fill="none" stroke="currentColor" stroke-miterlimit="2" stroke-width="2.48" d="M738.04 311.798v-18.6h72.191" class="Tuplet"/>
  <path fill="none" stroke="currentColor" stroke-miterlimit="2" stroke-width="2.48" d="M857.89 293.198h72.19v18.6" class="Tuplet"/>
  <path d="M535.479 373.799c0 2.778 2.182 4.96 4.96 4.96s4.96-2.182 4.96-4.96-2.182-4.96-4.96-4.96-4.96 2.182-4.96 4.96" class="NoteDot"/>
</svg>
