<svg xmlns="http://www.w3.org/2000/svg" width="774px" height="212px" baseProfile="tiny" version="1.2" viewBox="336 226 774 212">
  <path fill="none" stroke="currentColor" stroke-linejoin="bevel" stroke-width="2.73" d="M336.599 386.199h773.241" class="StaffLines"/>
  <path fill="none" stroke="currentColor" stroke-linejoin="bevel" stroke-width="4.46" d="M1084.79 335.235v101.928" class="BarLine"/>
  <path fill="none" stroke="currentColor" stroke-linejoin="bevel" stroke-width="13.64" d="M1103.02 335.235v101.928" class="BarLine"/>
  <path fill="none" stroke="currentColor" stroke-linejoin="bevel" stroke-width="2.48" d="M521.839 382.231v-58.032" class="Stem"/>
  <path fill="none" stroke="currentColor" stroke-linejoin="bevel" stroke-width="2.48" d="M603.946 382.231v-58.032" class="Stem"/>
  <path fill="none" stroke="currentColor" stroke-linejoin="bevel" stroke-width="2.48" d="M686.052 382.231v-58.032" class="Stem"/>
  <path fill="none" stroke="currentColor" stroke-linejoin="bevel" stroke-width="2.48" d="M734.091 382.231v-58.032" class="Stem"/>
  <path fill="none" stroke="currentColor" stroke-linejoin="bevel" stroke-width="2.48" d="M782.131 382.231v-58.032" class="Stem"/>
  <path fill="none" stroke="currentColor" stroke-linejoin="bevel" stroke-width="2.48" d="M830.17 382.231v-58.032" class="Stem"/>
  <path fill="none" stroke="currentColor" stroke-linejoin="bevel" stroke-width="2.48" d="M878.21 382.231v-58.032" class="Stem"/>
  <path fill="none" stroke="currentColor" stroke-linejoin="bevel" stroke-width="2.48" d="M926.249 382.231v-58.032" class="Stem"/>
  <path fill="none" stroke="currentColor" stroke-linejoin="bevel" stroke-width="2.48" d="M1030.33 382.231v-76.434" class="Stem"/>
  <path d="M1029.09 328.116c0 .298.1.893.794 1.092 4.265 1.388 12.796 6.745 19.244 17.756 1.786 3.076 4.663 7.341 4.663 15.575 0 7.142-1.786 14.483-4.464 21.625q-.298.894-.298 1.488c0 .695.397.992 1.091.992.596 0 1.092-.396 1.488-1.09 4.464-7.937 6.15-17.162 6.15-26.19-.495-12.796-7.836-22.22-7.836-22.22.298 0-9.126-12.202-11.805-16.368-3.67-5.655-5.357-11.31-5.555-11.706-.1-.298-.992-3.869-.992-3.869-.1-.397-.595-.793-1.19-.793-.695 0-1.29.595-1.29 1.29z" class="Hook"/>
  <path d="M490.847 390.365c0 4.266 3.075 9.028 11.11 9.028 10.317 0 21.13-8.432 21.13-17.162 0-5.853-4.96-9.126-11.11-9.126-9.623 0-21.13 8.134-21.13 17.26" class="Note"/>
  <path d="M572.953 390.365c0 4.266 3.075 9.028 11.11 9.028 10.317 0 21.13-8.432 21.13-17.162 0-5.853-4.96-9.126-11.11-9.126-9.623 0-21.13 8.134-21.13 17.26" class="Note"/>
  <path d="M655.06 390.365c0 4.266 3.075 9.028 11.11 9.028 10.317 0 21.13-8.432 21.13-17.162 0-5.853-4.96-9.126-11.11-9.126-9.623 0-21.13 8.134-21.13 17.26" class="Note"/>
  <path d="M703.099 390.365c0 4.266 3.075 9.028 11.11 9.028 10.317 0 21.13-8.432 21.13-17.162 0-5.853-4.96-9.126-11.11-9.126-9.623 0-21.13 8.134-21.13 17.26" class="Note"/>
  <path d="M751.139 390.365c0 4.266 3.075 9.028 11.11 9.028 10.317 0 21.13-8.432 21.13-17.162 0-5.853-4.96-9.126-11.11-9.126-9.623 0-21.13 8.134-21.13 17.26" class="Note"/>
  <path d="M799.178 390.365c0 4.266 3.075 9.028 11.11 9.028 10.317 0 21.13-8.432 21.13-17.162 0-5.853-4.96-9.126-11.11-9.126-9.623 0-21.13 8.134-21.13 17.26" class="Note"/>
  <path d="M847.217 390.365c0 4.266 3.075 9.028 11.11 9.028 10.317 0 21.13-8.432 21.13-17.162 0-5.853-4.96-9.126-11.11-9.126-9.623 0-21.13 8.134-21.13 17.26" class="Note"/>
  <path d="M895.257 390.365c0 4.266 3.075 9.028 11.11 9.028 10.317 0 21.13-8.432 21.13-17.162 0-5.853-4.96-9.126-11.11-9.126-9.623 0-21.13 8.134-21.13 17.26" class="Note"/>
  <path d="M999.341 390.365c0 4.266 3.075 9.028 11.11 9.028 10.317 0 21.13-8.432 21.13-17.162 0-5.853-4.96-9.126-11.11-9.126-9.623 0-21.13 8.134-21.13 17.26" class="Note"/>
  <path d="M356.489 361.2c-.695 0-1.29.596-1.29 1.29v47.418c0 .694.595 1.29 1.29 1.29H367.4c.694 0 1.29-.596 1.29-1.29V362.49c0-.694-.596-1.29-1.29-1.29zm21.427 0c-.695 0-1.29.596-1.29 1.29v47.418c0 .694.595 1.29 1.29 1.29h10.912c.694 0 1.29-.596 1.29-1.29V362.49c0-.694-.596-1.29-1.29-1.29z" class="Clef"/>
  <path d="M434.159 373.997v7.341h-8.234c-.694 0-1.389.595-1.389 1.389v1.885c0 .793.695 1.389 1.389 1.389h30.058c.793 0 1.388-.596 1.388-1.39v-1.884c0-.794-.595-1.389-1.388-1.389h-8.83v-7.34h8.83c.793 0 1.388-.695 1.388-1.489v-1.884c0-.695-.595-1.39-1.388-1.39h-8.83v-15.772c0-.595-.297-1.091-.793-1.29l-1.19-.595c-.199-.099-.496-.198-.695-.198-.297.099-.694.198-.892.397l-9.028 8.233c-.297.298-.396.695-.396 1.091v8.135H422.75s11.01-11.904 22.716-27.578c.397-.496.496-.992.496-1.389 0-.496-.198-.892-.297-.992l-2.183-2.182a1.52 1.52 0 0 0-.992-.397h-14.68c-.794 0-1.29.595-1.389 1.19 0 0-.496 7.341-3.075 15.377-2.58 8.035-5.555 12.995-8.135 16.665 0 0-.297.496-.297 1.091 0 .199 0 .397.099.596.397.694.992 1.785.992 1.785s.198.595 1.091.595z" class="TimeSig"/>
  <path d="M434.159 423.597v7.341h-8.234c-.694 0-1.389.595-1.389 1.389v1.885c0 .793.695 1.389 1.389 1.389h30.058c.793 0 1.388-.596 1.388-1.39v-1.884c0-.794-.595-1.389-1.388-1.389h-8.83v-7.34h8.83c.793 0 1.388-.695 1.388-1.489v-1.884c0-.695-.595-1.39-1.388-1.39h-8.83v-15.772c0-.595-.297-1.091-.793-1.29l-1.19-.595c-.199-.099-.496-.198-.695-.198-.297.099-.694.198-.892.397l-9.028 8.233c-.297.298-.396.695-.396 1.091v8.135H422.75s11.01-11.904 22.716-27.578c.397-.496.496-.992.496-1.389 0-.496-.198-.892-.297-.992l-2.183-2.182a1.52 1.52 0 0 0-.992-.397h-14.68c-.794 0-1.29.595-1.389 1.19 0 0-.496 7.341-3.075 15.377-2.58 8.035-5.555 12.995-8.135 16.665 0 0-.297.496-.297 1.091 0 .199 0 .397.099.596.397.694.992 1.785.992 1.785s.198.595 1.091.595z" class="TimeSig"/>
  <path fill-rule="evenodd" d="M684.812 317.998H879.45v12.401H684.812z" class="Beam"/>
  <path d="M780.042 241.375c2.115-.675 2.97-1.035 4.05-1.755 2.115-1.395 3.42-3.87 3.42-6.39 0-4.275-3.42-7.155-8.46-7.155-4.905 0-9.045 3.06-9.045 6.75 0 1.845 1.125 3.105 2.835 3.105 1.485 0 2.565-1.08 2.565-2.565 0-.765-.225-1.305-.945-2.025-.45-.405-.63-.72-.63-1.035 0-1.08 2.25-2.205 4.365-2.205 3.015 0 4.815 1.665 4.815 4.455 0 4.005-2.835 7.785-5.85 7.785-.135 0-.54-.045-1.035-.09-1.305-.09-1.305-.09-1.575-.09-.99 0-1.53.45-1.53 1.26 0 .72.495 1.17 1.305 1.17.225 0 .54-.045.9-.09a9 9 0 0 1 1.71-.18c2.115 0 3.555 1.89 3.555 4.68 0 4.86-2.385 9.54-7.83 9.54-2.52 0-4.68-1.26-4.68-2.7 0-.495.18-.675.9-.99 1.305-.585 1.845-1.395 1.845-2.61 0-1.575-1.26-2.79-2.88-2.79-1.935 0-3.195 1.53-3.195 3.87 0 4.365 3.33 7.11 8.73 7.11 6.795 0 11.97-4.545 11.97-10.575 0-3.51-2.16-5.49-5.31-6.48" class="Tuplet"/>
  <path fill="none" stroke="currentColor" stroke-miterlimit="2" stroke-width="2.48" d="M509.439 270.056v-18.6l242.817-8.379" class="Tuplet"/>
  <path fill="none" stroke="currentColor" stroke-miterlimit="2" stroke-width="2.48" d="m799.916 241.432 242.814-8.378v18.6" class="Tuplet"/>
  <path d="M773.712 285.263c-1.395.855-1.8 1.395-1.8 2.295 0 .855.72 1.485 1.62 1.485 1.17 0 1.845-.855 1.98-2.52 1.395-1.125 2.88-1.62 4.68-1.62 3.33 0 5.175 2.07 5.175 5.805 0 5.85-3.78 10.62-8.415 10.62-2.655 0-4.815-1.26-4.815-2.745 0-.27.045-.36.27-.495 1.44-.675 2.61-1.17 2.61-3.06 0-1.44-1.125-2.52-2.7-2.52-1.98 0-3.465 1.665-3.465 3.825 0 3.96 3.42 6.84 8.235 6.84 7.29 0 13.185-5.805 13.185-13.005 0-4.545-3.465-7.74-8.37-7.74-1.935 0-3.51.405-5.67 1.485l2.52-8.505c2.385.495 4.275.72 5.895.72 2.97 0 5.625-.945 7.11-2.52.765-.9 1.215-1.665 1.215-2.25 0-.27-.135-.54-.315-.54-.135 0-.225.045-.495.18-1.485.72-3.375 1.125-5.13 1.125-2.7 0-5.895-.45-9.225-1.305z" class="Tuplet"/>
  <path d="M939.889 373.799c0 2.778 2.182 4.96 4.96 4.96s4.96-2.182 4.96-4.96-2.182-4.96-4.96-4.96-4.96 2.182-4.96 4.96" class="NoteDot"/>
</svg>
