<svg xmlns="http://www.w3.org/2000/svg" baseProfile="tiny" version="1.2" viewBox="336 277 622 161" width="100%" height="100%">
  <path fill="none" stroke="currentColor" stroke-linejoin="bevel" stroke-width="2.73" d="M336.599 386.199h620.448" class="StaffLines"/>
  <path fill="none" stroke="currentColor" stroke-linejoin="bevel" stroke-width="4.46" d="M931.998 335.235v101.928" class="BarLine"/>
  <path fill="none" stroke="currentColor" stroke-linejoin="bevel" stroke-width="13.64" d="M950.226 335.235v101.928" class="BarLine"/>
  <path fill="none" stroke="currentColor" stroke-linejoin="bevel" stroke-width="2.48" d="M521.839 382.231v-58.032" class="Stem"/>
  <path fill="none" stroke="currentColor" stroke-linejoin="bevel" stroke-width="2.48" d="M583.42 382.231v-58.032" class="Stem"/>
  <path fill="none" stroke="currentColor" stroke-linejoin="bevel" stroke-width="2.48" d="M645.002 382.231v-58.032" class="Stem"/>
  <path fill="none" stroke="currentColor" stroke-linejoin="bevel" stroke-width="2.48" d="M706.583 382.231v-58.032" class="Stem"/>
  <path fill="none" stroke="currentColor" stroke-linejoin="bevel" stroke-width="2.48" d="M768.164 382.231v-58.032" class="Stem"/>
  <path fill="none" stroke="currentColor" stroke-linejoin="bevel" stroke-width="2.48" d="M829.745 382.231v-58.032" class="Stem"/>
  <path fill="none" stroke="currentColor" stroke-linejoin="bevel" stroke-width="2.48" d="M891.326 382.231v-58.032" class="Stem"/>
  <path d="M490.847 390.365c0 4.266 3.075 9.028 11.11 9.028 10.317 0 21.13-8.432 21.13-17.162 0-5.853-4.96-9.126-11.11-9.126-9.623 0-21.13 8.134-21.13 17.26" class="Note"/>
  <path d="M552.428 390.365c0 4.266 3.075 9.028 11.11 9.028 10.317 0 21.13-8.432 21.13-17.162 0-5.853-4.96-9.126-11.11-9.126-9.623 0-21.13 8.134-21.13 17.26" class="Note"/>
  <path d="M614.009 390.365c0 4.266 3.075 9.028 11.11 9.028 10.317 0 21.13-8.432 21.13-17.162 0-5.853-4.96-9.126-11.11-9.126-9.623 0-21.13 8.134-21.13 17.26" class="Note"/>
  <path d="M675.591 390.365c0 4.266 3.075 9.028 11.11 9.028 10.317 0 21.13-8.432 21.13-17.162 0-5.853-4.96-9.126-11.11-9.126-9.623 0-21.13 8.134-21.13 17.26" class="Note"/>
  <path d="M737.172 390.365c0 4.266 3.075 9.028 11.11 9.028 10.317 0 21.13-8.432 21.13-17.162 0-5.853-4.96-9.126-11.11-9.126-9.623 0-21.13 8.134-21.13 17.26" class="Note"/>
  <path d="M798.753 390.365c0 4.266 3.075 9.028 11.11 9.028 10.317 0 21.13-8.432 21.13-17.162 0-5.853-4.96-9.126-11.11-9.126-9.623 0-21.13 8.134-21.13 17.26" class="Note"/>
  <path d="M860.334 390.365c0 4.266 3.075 9.028 11.11 9.028 10.317 0 21.13-8.432 21.13-17.162 0-5.853-4.96-9.126-11.11-9.126-9.623 0-21.13 8.134-21.13 17.26" class="Note"/>
  <path d="M356.489 361.2c-.695 0-1.29.596-1.29 1.29v47.418c0 .694.595 1.29 1.29 1.29H367.4c.694 0 1.29-.596 1.29-1.29V362.49c0-.694-.596-1.29-1.29-1.29zm21.427 0c-.695 0-1.29.596-1.29 1.29v47.418c0 .694.595 1.29 1.29 1.29h10.912c.694 0 1.29-.596 1.29-1.29V362.49c0-.694-.596-1.29-1.29-1.29z" class="Clef"/>
  <path d="M434.159 373.997v7.341h-8.234c-.694 0-1.389.595-1.389 1.389v1.885c0 .793.695 1.389 1.389 1.389h30.058c.793 0 1.388-.596 1.388-1.39v-1.884c0-.794-.595-1.389-1.388-1.389h-8.83v-7.34h8.83c.793 0 1.388-.695 1.388-1.489v-1.884c0-.695-.595-1.39-1.388-1.39h-8.83v-15.772c0-.595-.297-1.091-.793-1.29l-1.19-.595c-.199-.099-.496-.198-.695-.198-.297.099-.694.198-.892.397l-9.028 8.233c-.297.298-.396.695-.396 1.091v8.135H422.75s11.01-11.904 22.716-27.578c.397-.496.496-.992.496-1.389 0-.496-.198-.892-.297-.992l-2.183-2.182a1.52 1.52 0 0 0-.992-.397h-14.68c-.794 0-1.29.595-1.389 1.19 0 0-.496 7.341-3.075 15.377-2.58 8.035-5.555 12.995-8.135 16.665 0 0-.297.496-.297 1.091 0 .199 0 .397.099.596.397.694.992 1.785.992 1.785s.198.595 1.091.595z" class="TimeSig"/>
  <path d="M434.159 423.597v7.341h-8.234c-.694 0-1.389.595-1.389 1.389v1.885c0 .793.695 1.389 1.389 1.389h30.058c.793 0 1.388-.596 1.388-1.39v-1.884c0-.794-.595-1.389-1.388-1.389h-8.83v-7.34h8.83c.793 0 1.388-.695 1.388-1.489v-1.884c0-.695-.595-1.39-1.388-1.39h-8.83v-15.772c0-.595-.297-1.091-.793-1.29l-1.19-.595c-.199-.099-.496-.198-.695-.198-.297.099-.694.198-.892.397l-9.028 8.233c-.297.298-.396.695-.396 1.091v8.135H422.75s11.01-11.904 22.716-27.578c.397-.496.496-.992.496-1.389 0-.496-.198-.892-.297-.992l-2.183-2.182a1.52 1.52 0 0 0-.992-.397h-14.68c-.794 0-1.29.595-1.389 1.19 0 0-.496 7.341-3.075 15.377-2.58 8.035-5.555 12.995-8.135 16.665 0 0-.297.496-.297 1.091 0 .199 0 .397.099.596.397.694.992 1.785.992 1.785s.198.595 1.091.595z" class="TimeSig"/>
  <path d="M717.672 277.018c-2.385.27-5.31.45-7.83.45q-1.89 0-4.32-.135c-1.485-.09-2.97-.18-4.5-.27l-1.125-.045-4.365 9.495 1.665.54 1.08-1.8c2.115-3.51 3.105-4.005 7.695-3.96h7.605l-4.905 7.02c-5.76 8.1-5.76 8.1-7.965 11.7-1.98 3.195-2.79 5.175-2.79 6.795 0 1.575.99 2.565 2.565 2.565 1.665 0 2.52-.81 3.105-2.925 2.25-8.46 3.6-11.385 9.855-21.51l4.23-6.57z" class="Tuplet"/>
  <path fill="none" stroke="currentColor" stroke-miterlimit="2" stroke-width="2.48" d="M509.439 311.798v-18.6H683.12" class="Tuplet"/>
  <path fill="none" stroke="currentColor" stroke-miterlimit="2" stroke-width="2.48" d="M730.045 293.198h173.681v18.6" class="Tuplet"/>
</svg>
