<svg xmlns="http://www.w3.org/2000/svg" baseProfile="tiny" version="1.2" viewBox="336 226 802 212" width="100%" height="100%">
  <path fill="none" stroke="currentColor" stroke-linejoin="bevel" stroke-width="2.73" d="M336.599 386.199h800.611" class="StaffLines"/>
  <path fill="none" stroke="currentColor" stroke-linejoin="bevel" stroke-width="4.46" d="M1112.16 335.235v101.928" class="BarLine"/>
  <path fill="none" stroke="currentColor" stroke-linejoin="bevel" stroke-width="13.64" d="M1130.39 335.235v101.928" class="BarLine"/>
  <path fill="none" stroke="currentColor" stroke-linejoin="bevel" stroke-width="2.48" d="M761.46 382.231v-58.032" class="Stem"/>
  <path fill="none" stroke="currentColor" stroke-linejoin="bevel" stroke-width="2.48" d="M521.839 382.231v-58.032" class="Stem"/>
  <path fill="none" stroke="currentColor" stroke-linejoin="bevel" stroke-width="2.48" d="M576.577 382.231v-58.032" class="Stem"/>
  <path fill="none" stroke="currentColor" stroke-linejoin="bevel" stroke-width="2.48" d="M631.314 382.231v-58.032" class="Stem"/>
  <path fill="none" stroke="currentColor" stroke-linejoin="bevel" stroke-width="2.48" d="M713.421 382.231v-58.032" class="Stem"/>
  <path fill="none" stroke="currentColor" stroke-linejoin="bevel" stroke-width="2.48" d="M809.5 382.231v-58.032" class="Stem"/>
  <path fill="none" stroke="currentColor" stroke-linejoin="bevel" stroke-width="2.48" d="M857.539 382.231v-58.032" class="Stem"/>
  <path fill="none" stroke="currentColor" stroke-linejoin="bevel" stroke-width="2.48" d="M905.578 382.231v-58.032" class="Stem"/>
  <path fill="none" stroke="currentColor" stroke-linejoin="bevel" stroke-width="2.48" d="M953.618 382.231v-58.032" class="Stem"/>
  <path fill="none" stroke="currentColor" stroke-linejoin="bevel" stroke-width="2.48" d="M1057.7 382.231v-76.434" class="Stem"/>
  <path d="M1056.46 328.116c0 .298.1.893.794 1.092 4.265 1.388 12.796 6.745 19.244 17.756 1.786 3.076 4.663 7.341 4.663 15.575 0 7.142-1.786 14.483-4.464 21.625q-.298.894-.298 1.488c0 .695.397.992 1.091.992.596 0 1.092-.396 1.488-1.09 4.464-7.937 6.15-17.162 6.15-26.19-.495-12.796-7.836-22.22-7.836-22.22.298 0-9.126-12.202-11.805-16.368-3.67-5.655-5.357-11.31-5.555-11.706-.1-.298-.992-3.869-.992-3.869-.1-.397-.595-.793-1.19-.793-.695 0-1.29.595-1.29 1.29z" class="Hook"/>
  <path d="M490.847 390.365c0 4.266 3.075 9.028 11.11 9.028 10.317 0 21.13-8.432 21.13-17.162 0-5.853-4.96-9.126-11.11-9.126-9.623 0-21.13 8.134-21.13 17.26" class="Note"/>
  <path d="M545.585 390.365c0 4.266 3.075 9.028 11.11 9.028 10.317 0 21.13-8.432 21.13-17.162 0-5.853-4.96-9.126-11.11-9.126-9.623 0-21.13 8.134-21.13 17.26" class="Note"/>
  <path d="M600.322 390.365c0 4.266 3.075 9.028 11.11 9.028 10.317 0 21.13-8.432 21.13-17.162 0-5.853-4.96-9.126-11.11-9.126-9.623 0-21.13 8.134-21.13 17.26" class="Note"/>
  <path d="M682.429 390.365c0 4.266 3.075 9.028 11.11 9.028 10.317 0 21.13-8.432 21.13-17.162 0-5.853-4.96-9.126-11.11-9.126-9.623 0-21.13 8.134-21.13 17.26" class="Note"/>
  <path d="M730.468 390.365c0 4.266 3.075 9.028 11.11 9.028 10.317 0 21.13-8.432 21.13-17.162 0-5.853-4.96-9.126-11.11-9.126-9.623 0-21.13 8.134-21.13 17.26" class="Note"/>
  <path d="M778.507 390.365c0 4.266 3.075 9.028 11.11 9.028 10.317 0 21.13-8.432 21.13-17.162 0-5.853-4.96-9.126-11.11-9.126-9.623 0-21.13 8.134-21.13 17.26" class="Note"/>
  <path d="M826.547 390.365c0 4.266 3.075 9.028 11.11 9.028 10.317 0 21.13-8.432 21.13-17.162 0-5.853-4.96-9.126-11.11-9.126-9.623 0-21.13 8.134-21.13 17.26" class="Note"/>
  <path d="M874.586 390.365c0 4.266 3.075 9.028 11.11 9.028 10.317 0 21.13-8.432 21.13-17.162 0-5.853-4.96-9.126-11.11-9.126-9.623 0-21.13 8.134-21.13 17.26" class="Note"/>
  <path d="M922.625 390.365c0 4.266 3.075 9.028 11.11 9.028 10.317 0 21.13-8.432 21.13-17.162 0-5.853-4.96-9.126-11.11-9.126-9.623 0-21.13 8.134-21.13 17.26" class="Note"/>
  <path d="M1026.71 390.365c0 4.266 3.075 9.028 11.11 9.028 10.317 0 21.13-8.432 21.13-17.162 0-5.853-4.96-9.126-11.11-9.126-9.623 0-21.13 8.134-21.13 17.26" class="Note"/>
  <path d="M356.489 361.2c-.695 0-1.29.596-1.29 1.29v47.418c0 .694.595 1.29 1.29 1.29H367.4c.694 0 1.29-.596 1.29-1.29V362.49c0-.694-.596-1.29-1.29-1.29zm21.427 0c-.695 0-1.29.596-1.29 1.29v47.418c0 .694.595 1.29 1.29 1.29h10.912c.694 0 1.29-.596 1.29-1.29V362.49c0-.694-.596-1.29-1.29-1.29z" class="Clef"/>
  <path d="M434.159 373.997v7.341h-8.234c-.694 0-1.389.595-1.389 1.389v1.885c0 .793.695 1.389 1.389 1.389h30.058c.793 0 1.388-.596 1.388-1.39v-1.884c0-.794-.595-1.389-1.388-1.389h-8.83v-7.34h8.83c.793 0 1.388-.695 1.388-1.489v-1.884c0-.695-.595-1.39-1.388-1.39h-8.83v-15.772c0-.595-.297-1.091-.793-1.29l-1.19-.595c-.199-.099-.496-.198-.695-.198-.297.099-.694.198-.892.397l-9.028 8.233c-.297.298-.396.695-.396 1.091v8.135H422.75s11.01-11.904 22.716-27.578c.397-.496.496-.992.496-1.389 0-.496-.198-.892-.297-.992l-2.183-2.182a1.52 1.52 0 0 0-.992-.397h-14.68c-.794 0-1.29.595-1.389 1.19 0 0-.496 7.341-3.075 15.377-2.58 8.035-5.555 12.995-8.135 16.665 0 0-.297.496-.297 1.091 0 .199 0 .397.099.596.397.694.992 1.785.992 1.785s.198.595 1.091.595z" class="TimeSig"/>
  <path d="M434.159 423.597v7.341h-8.234c-.694 0-1.389.595-1.389 1.389v1.885c0 .793.695 1.389 1.389 1.389h30.058c.793 0 1.388-.596 1.388-1.39v-1.884c0-.794-.595-1.389-1.388-1.389h-8.83v-7.34h8.83c.793 0 1.388-.695 1.388-1.489v-1.884c0-.695-.595-1.39-1.388-1.39h-8.83v-15.772c0-.595-.297-1.091-.793-1.29l-1.19-.595c-.199-.099-.496-.198-.695-.198-.297.099-.694.198-.892.397l-9.028 8.233c-.297.298-.396.695-.396 1.091v8.135H422.75s11.01-11.904 22.716-27.578c.397-.496.496-.992.496-1.389 0-.496-.198-.892-.297-.992l-2.183-2.182a1.52 1.52 0 0 0-.992-.397h-14.68c-.794 0-1.29.595-1.389 1.19 0 0-.496 7.341-3.075 15.377-2.58 8.035-5.555 12.995-8.135 16.665 0 0-.297.496-.297 1.091 0 .199 0 .397.099.596.397.694.992 1.785.992 1.785s.198.595 1.091.595z" class="TimeSig"/>
  <path fill-rule="evenodd" d="M520.599 317.998h57.218v12.401h-57.218z" class="Beam"/>
  <path fill-rule="evenodd" d="M712.181 317.998h194.637v12.401H712.181z" class="Beam"/>
  <path d="M783.787 242.68c.765-3.96 1.665-6.435 3.375-9.45 2.025-3.555 4.455-5.355 7.155-5.355 1.395 0 2.25.54 2.25 1.395 0 .315-.09.495-.405 1.08-.405.765-.585 1.305-.585 1.98 0 1.44 1.08 2.43 2.61 2.43 1.845 0 3.105-1.35 3.105-3.375 0-3.06-2.88-5.31-6.885-5.31-10.035 0-16.11 13.095-16.11 21.735 0 6.615 3.285 10.62 8.775 10.62 6.75 0 11.745-5.58 11.745-12.195 0-4.59-3.105-7.785-7.605-7.785-3.15 0-5.58 1.35-7.425 4.23m5.985-1.62c2.79 0 4.32 1.935 4.32 5.445 0 5.715-3.015 10.08-7.02 10.08-2.88 0-4.59-2.115-4.59-5.715 0-5.625 3.105-9.81 7.29-9.81" class="Tuplet"/>
  <path fill="none" stroke="currentColor" stroke-miterlimit="2" stroke-width="2.48" d="M509.439 266.956v-18.601l256.439-5.58" class="Tuplet"/>
  <path fill="none" stroke="currentColor" stroke-miterlimit="2" stroke-width="2.48" d="m813.663 241.735 256.437-5.581v18.6" class="Tuplet"/>
  <path d="M801.081 285.263c-1.395.855-1.8 1.395-1.8 2.295 0 .855.72 1.485 1.62 1.485 1.17 0 1.845-.855 1.98-2.52 1.395-1.125 2.88-1.62 4.68-1.62 3.33 0 5.175 2.07 5.175 5.805 0 5.85-3.78 10.62-8.415 10.62-2.655 0-4.815-1.26-4.815-2.745 0-.27.045-.36.27-.495 1.44-.675 2.61-1.17 2.61-3.06 0-1.44-1.125-2.52-2.7-2.52-1.98 0-3.465 1.665-3.465 3.825 0 3.96 3.42 6.84 8.235 6.84 7.29 0 13.185-5.805 13.185-13.005 0-4.545-3.465-7.74-8.37-7.74-1.935 0-3.51.405-5.67 1.485l2.52-8.505c2.385.495 4.275.72 5.895.72 2.97 0 5.625-.945 7.11-2.52.765-.9 1.215-1.665 1.215-2.25 0-.27-.135-.54-.315-.54-.135 0-.225.045-.495.18-1.485.72-3.375 1.125-5.13 1.125-2.7 0-5.895-.45-9.225-1.305z" class="Tuplet"/>
  <path d="M967.258 373.799c0 2.778 2.182 4.96 4.96 4.96s4.96-2.182 4.96-4.96-2.182-4.96-4.96-4.96-4.96 2.182-4.96 4.96" class="NoteDot"/>
</svg>
